{
.appVersion = "3089";
.formatVersion = 3;
DisplayStrings = (
"Wimbledon
wimbledon"
);
axes = (
{
name = Weight;
tag = wght;
}
);
date = "2021-04-02 20:56:08 +0000";
familyName = "Blueberry Sans";
fontMaster = (
{
axesValues = (
300
);
iconName = Light;
id = m01;
metricValues = (
{
over = 16;
pos = 800;
},
{
over = 16;
pos = 700;
},
{
over = 16;
pos = 500;
},
{
over = -16;
},
{
over = -16;
pos = -250;
}
);
name = Light;
userData = {
GSCornerRadius = 15;
GSExtrudeAngle = 30;
GSExtrudeOffset = 15;
GSOffsetHorizontal = 29;
GSOffsetMakeStroke = 1;
GSOffsetPosition = 1;
GSOffsetVertical = 32;
};
},
{
axesValues = (
900
);
iconName = Bold;
id = "747A0BA5-337F-45E8-9896-B2CAF0968805";
metricValues = (
{
over = 16;
pos = 800;
},
{
over = 16;
pos = 700;
},
{
over = 16;
pos = 500;
},
{
over = -16;
},
{
over = -16;
pos = -250;
}
);
name = Black;
userData = {
GSOffsetHorizontal = 60;
GSOffsetMakeStroke = 1;
GSOffsetPosition = 0;
GSOffsetVertical = 55;
};
}
);
glyphs = (
{
glyphname = A;
lastChange = "2021-06-25 18:33:55 +0000";
layers = (
{
anchors = (
{
name = bottom;
pos = (331,0);
},
{
name = ogonek;
pos = (596,10);
},
{
name = top;
pos = (331,700);
}
);
layerId = m01;
shapes = (
{
closed = 1;
nodes = (
(78,0,l),
(364,700,l),
(298,700,l),
(10,0,l)
);
},
{
closed = 1;
nodes = (
(364,700,l),
(298,700,l),
(584,0,l),
(652,0,l)
);
},
{
closed = 1;
nodes = (
(146,217,l),
(516,217,l),
(516,275,l),
(146,275,l)
);
}
);
width = 662;
},
{
anchors = (
{
name = bottom;
pos = (365,0);
},
{
name = ogonek;
pos = (672,10);
},
{
name = top;
pos = (365,700);
}
);
layerId = "747A0BA5-337F-45E8-9896-B2CAF0968805";
shapes = (
{
closed = 1;
nodes = (
(190,0,l),
(446,700,l),
(273,700,l),
(5,0,l)
);
},
{
closed = 1;
nodes = (
(456,700,l),
(283,700,l),
(539,0,l),
(724,0,l)
);
},
{
closed = 1;
nodes = (
(123,120,l),
(607,120,l),
(607,278,l),
(123,278,l)
);
}
);
width = 729;
}
);
unicode = 65;
},
{
glyphname = B;
lastChange = "2021-06-25 18:25:43 +0000";
layers = (
{
background = {
shapes = (
{
closed = 1;
nodes = (
(164,0,l),
(164,700,l),
(100,700,l),
(100,0,l)
);
},
{
closed = 1;
nodes = (
(164,385,l),
(164,326,l),
(312,326,l),
(455,326,o),
(540,395,o),
(540,513,c),
(540,631,o),
(456,701,o),
(315,701,c),
(164,700,l),
(164,642,l),
(315,642,l),
(417,643,o),
(477,595,o),
(477,513,c),
(477,433,o),
(427,385,o),
(342,385,c),
(164,385,l),
(164,326,l)
);
},
{
closed = 1;
nodes = (
(164,59,l),
(164,0,l),
(342,0,l),
(479,0,o),
(560,69,o),
(560,187,c),
(560,311,o),
(458,385,o),
(285,385,c),
(164,384,l),
(164,326,l),
(315,326,l),
(429,327,o),
(497,275,o),
(497,187,c),
(497,107,o),
(439,59,o),
(342,59,c),
(164,59,l),
(164,0,l)
);
}
);
};
layerId = m01;
shapes = (
{
closed = 1;
nodes = (
(164,0,l),
(164,700,l),
(100,700,l),
(100,0,l)
);
},
{
closed = 1;
nodes = (
(164,385,l),
(164,326,l),
(312,326,l),
(455,326,o),
(540,395,o),
(540,513,c),
(540,631,o),
(456,701,o),
(315,701,c),
(164,700,l),
(164,642,l),
(315,642,l),
(417,643,o),
(477,595,o),
(477,513,c),
(477,433,o),
(427,385,o),
(342,385,c),
(164,385,l),
(164,326,l)
);
},
{
closed = 1;
nodes = (
(164,59,l),
(164,0,l),
(342,0,l),
(479,0,o),
(560,69,o),
(560,187,c),
(560,311,o),
(458,385,o),
(285,385,c),
(164,384,l),
(164,326,l),
(315,326,l),
(429,327,o),
(497,275,o),
(497,187,c),
(497,107,o),
(439,59,o),
(342,59,c),
(164,59,l),
(164,0,l)
);
}
);
width = 610;
},
{
layerId = "747A0BA5-337F-45E8-9896-B2CAF0968805";
shapes = (
{
closed = 1;
nodes = (
(250,0,l),
(250,700,l),
(70,700,l),
(70,0,l)
);
},
{
closed = 1;
nodes = (
(111,440,l),
(111,276,l),
(239,294,l),
(433,294,o),
(571,391,o),
(571,493,c),
(571,635,o),
(468,701,o),
(322,701,c),
(111,698,l),
(111,557,l),
(309,557,l),
(351,558,o),
(381,535,o),
(381,496,c),
(381,457,o),
(351,435,o),
(309,435,c),
(111,435,l),
(111,281,l)
);
},
{
closed = 1;
nodes = (
(119,170,l),
(119,0,l),
(357,0,l),
(499,0,o),
(599,74,o),
(599,208,c),
(599,371,o),
(450,421,o),
(240,421,c),
(119,426,l),
(119,288,l),
(335,288,l),
(379,289,o),
(407,264,o),
(407,227,c),
(407,190,o),
(379,163,o),
(335,163,c),
(119,163,l),
(119,0,l)
);
}
);
width = 629;
}
);
metricLeft = I;
metricRight = O;
unicode = 66;
},
{
glyphname = C;
lastChange = "2021-06-02 07:12:31 +0000";
layers = (
{
layerId = m01;
shapes = (
{
closed = 1;
nodes = (
(675,546,l),
(624,646,o),
(504,716,o),
(386,716,cs),
(189,716,o),
(50,564,o),
(50,350,cs),
(50,136,o),
(190,-16,o),
(389,-16,cs),
(508,-16,o),
(629,61,o),
(681,170,c),
(626,199,l),
(584,106,o),
(486,40,o),
(389,40,cs),
(228,40,o),
(114,168,o),
(114,350,cs),
(114,530,o),
(227,658,o),
(386,658,cs),
(480,658,o),
(577,600,o),
(620,517,c)
);
}
);
width = 721;
},
{
background = {
shapes = (
{
closed = 1;
nodes = (
(607,-16,o),
(757,135,o),
(757,349,cs),
(757,563,o),
(606,715,o),
(393,715,cs),
(180,715,o),
(30,563,o),
(30,349,cs),
(30,135,o),
(181,-16,o),
(395,-16,cs)
);
},
{
closed = 1;
nodes = (
(292,164,o),
(220,241,o),
(220,349,cs),
(220,458,o),
(292,535,o),
(393,535,cs),
(495,535,o),
(567,458,o),
(567,349,cs),
(567,241,o),
(496,164,o),
(395,164,cs)
);
}
);
};
layerId = "747A0BA5-337F-45E8-9896-B2CAF0968805";
shapes = (
{
closed = 1;
nodes = (
(718,490,l),
(668,622,o),
(532,716,o),
(390,716,cs),
(179,716,o),
(30,564,o),
(30,350,cs),
(30,136,o),
(179,-16,o),
(390,-16,cs),
(534,-16,o),
(670,78,o),
(719,211,c),
(539,269,l),
(510,207,o),
(448,164,o),
(388,164,cs),
(290,164,o),
(220,241,o),
(220,350,cs),
(220,459,o),
(288,536,o),
(385,536,cs),
(448,536,o),
(512,493,o),
(539,432,c)
);
}
);
width = 739;
}
);
metricLeft = O;
metricRight = "=O-10";
unicode = 67;
},
{
glyphname = D;
kernRight = round_right_uppercase;
lastChange = "2021-06-02 19:53:02 +0000";
layers = (
{
layerId = m01;
shapes = (
{
closed = 1;
nodes = (
(498,0,o),
(633,145,o),
(633,350,cs),
(633,556,o),
(498,700,o),
(309,700,c),
(309,642,l),
(453,642,o),
(569,511,o),
(569,350,cs),
(569,189,o),
(453,58,o),
(309,58,c),
(309,0,l)
);
},
{
closed = 1;
nodes = (
(164,0,l),
(164,700,l),
(100,700,l),
(100,0,l)
);
},
{
closed = 1;
nodes = (
(164,642,l),
(309,642,l),
(309,700,l),
(164,700,l)
);
},
{
closed = 1;
nodes = (
(164,0,l),
(309,0,l),
(309,58,l),
(164,58,l)
);
}
);
width = 683;
},
{
layerId = "747A0BA5-337F-45E8-9896-B2CAF0968805";
shapes = (
{
closed = 1;
nodes = (
(516,0,o),
(676,145,o),
(676,350,cs),
(676,555,o),
(516,700,o),
(289,700,c),
(289,520,l),
(404,520,o),
(486,450,o),
(486,350,cs),
(486,250,o),
(404,180,o),
(289,180,c),
(289,0,l)
);
},
{
closed = 1;
nodes = (
(260,0,l),
(260,700,l),
(70,700,l),
(70,0,l)
);
},
{
closed = 1;
nodes = (
(144,520,l),
(289,520,l),
(289,700,l),
(144,700,l)
);
},
{
closed = 1;
nodes = (
(144,0,l),
(289,0,l),
(289,180,l),
(144,180,l)
);
}
);
width = 706;
}
);
metricLeft = I;
metricRight = O;
unicode = 68;
},
{
glyphname = E;
lastChange = "2021-05-30 06:49:53 +0000";
layers = (
{
layerId = m01;
shapes = (
{
closed = 1;
nodes = (
(100,0,l),
(164,0,l),
(164,700,l),
(100,700,l)
);
},
{
closed = 1;
nodes = (
(164,642,l),
(503,642,l),
(503,700,l),
(164,700,l)
);
},
{
closed = 1;
nodes = (
(164,0,l),
(503,0,l),
(503,58,l),
(164,58,l)
);
},
{
closed = 1;
nodes = (
(164,332,l),
(479,332,l),
(479,390,l),
(164,390,l)
);
}
);
width = 553;
},
{
layerId = "747A0BA5-337F-45E8-9896-B2CAF0968805";
shapes = (
{
closed = 1;
nodes = (
(70,0,l),
(250,0,l),
(250,700,l),
(70,700,l)
);
},
{
closed = 1;
nodes = (
(210,530,l),
(549,530,l),
(549,700,l),
(210,700,l)
);
},
{
closed = 1;
nodes = (
(210,0,l),
(556,0,l),
(556,170,l),
(210,170,l)
);
},
{
closed = 1;
nodes = (
(210,265,l),
(495,265,l),
(495,435,l),
(210,435,l)
);
}
);
width = 606;
}
);
metricLeft = I;
unicode = 69;
},
{
glyphname = F;
lastChange = "2021-05-15 04:30:47 +0000";
layers = (
{
layerId = m01;
shapes = (
{
closed = 1;
nodes = (
(100,0,l),
(164,0,l),
(164,700,l),
(100,700,l)
);
},
{
closed = 1;
nodes = (
(164,642,l),
(503,642,l),
(503,700,l),
(164,700,l)
);
},
{
closed = 1;
nodes = (
(164,317,l),
(469,317,l),
(469,375,l),
(164,375,l)
);
}
);
width = 539;
},
{
layerId = "747A0BA5-337F-45E8-9896-B2CAF0968805";
shapes = (
{
closed = 1;
nodes = (
(70,0,l),
(250,0,l),
(250,700,l),
(70,700,l)
);
},
{
closed = 1;
nodes = (
(210,530,l),
(549,530,l),
(549,700,l),
(210,700,l)
);
},
{
closed = 1;
nodes = (
(210,258,l),
(485,258,l),
(485,428,l),
(210,428,l)
);
}
);
width = 574;
}
);
metricLeft = I;
unicode = 70;
},
{
glyphname = G;
lastChange = "2021-06-25 18:48:52 +0000";
layers = (
{
layerId = m01;
shapes = (
{
closed = 1;
nodes = (
(50,137,o),
(200,-13,o),
(413,-13,cs),
(597,-13,o),
(727,113,o),
(727,290,c),
(665,290,l),
(665,146,o),
(559,45,o),
(413,45,cs),
(238,45,o),
(114,171,o),
(114,349,cs),
(114,527,o),
(238,653,o),
(413,653,cs),
(501,653,o),
(595,604,o),
(639,534,c),
(688,571,l),
(633,653,o),
(519,711,o),
(413,711,cs),
(200,711,o),
(50,561,o),
(50,349,cs)
);
},
{
closed = 1;
nodes = (
(489,290,l),
(646,290,l),
(727,290,l),
(727,349,l),
(489,349,l)
);
}
);
width = 767;
},
{
layerId = "747A0BA5-337F-45E8-9896-B2CAF0968805";
shapes = (
{
closed = 1;
nodes = (
(30,137,o),
(180,-13,o),
(393,-13,cs),
(577,-13,o),
(707,119,o),
(707,305,c),
(540,272,l),
(540,207,o),
(467,162,o),
(408,162,cs),
(298,162,o),
(220,239,o),
(220,349,cs),
(220,456,o),
(292,531,o),
(393,531,cs),
(445,531,o),
(499,503,o),
(524,463,c),
(668,571,l),
(613,653,o),
(499,711,o),
(393,711,cs),
(180,711,o),
(30,561,o),
(30,349,cs)
);
},
{
closed = 1;
nodes = (
(380,258,l),
(607,258,l),
(707,285,l),
(707,390,l),
(380,390,l)
);
}
);
width = 727;
}
);
metricLeft = O;
metricRight = "=O-10";
unicode = 71;
},
{
glyphname = H;
lastChange = "2021-05-16 05:34:27 +0000";
layers = (
{
layerId = m01;
shapes = (
{
closed = 1;
nodes = (
(100,0,l),
(164,0,l),
(164,700,l),
(100,700,l)
);
},
{
closed = 1;
nodes = (
(588,0,l),
(652,0,l),
(652,700,l),
(588,700,l)
);
},
{
closed = 1;
nodes = (
(164,332,l),
(588,332,l),
(588,390,l),
(164,390,l)
);
}
);
width = 752;
},
{
layerId = "747A0BA5-337F-45E8-9896-B2CAF0968805";
shapes = (
{
closed = 1;
nodes = (
(70,0,l),
(260,-1,l),
(260,699,l),
(70,700,l)
);
},
{
closed = 1;
nodes = (
(508,0,l),
(698,0,l),
(698,700,l),
(508,700,l)
);
},
{
closed = 1;
nodes = (
(197,276,l),
(621,276,l),
(621,446,l),
(197,446,l)
);
}
);
width = 768;
}
);
metricLeft = I;
metricRight = I;
unicode = 72;
},
{
glyphname = I;
lastChange = "2021-06-27 07:01:33 +0000";
layers = (
{
layerId = m01;
shapes = (
{
closed = 1;
nodes = (
(100,0,l),
(164,0,l),
(164,700,l),
(100,700,l)
);
}
);
width = 264;
},
{
layerId = "747A0BA5-337F-45E8-9896-B2CAF0968805";
shapes = (
{
closed = 1;
nodes = (
(70,0,l),
(260,0,l),
(260,700,l),
(70,700,l)
);
}
);
width = 330;
}
);
unicode = 73;
},
{
glyphname = J;
lastChange = "2021-06-25 18:42:05 +0000";
layers = (
{
layerId = m01;
shapes = (
{
closed = 1;
nodes = (
(410,700,l),
(346,700,l),
(346,242,ls),
(346,97,o),
(260,47,o),
(184,47,cs),
(123,47,o),
(82,81,o),
(53,128,c),
(5,98,l),
(41,34,o),
(100,-11,o),
(184,-11,cs),
(291,-11,o),
(410,61,o),
(410,212,c)
);
}
);
width = 500;
},
{
layerId = "747A0BA5-337F-45E8-9896-B2CAF0968805";
shapes = (
{
closed = 1;
nodes = (
(537,700,l),
(347,700,l),
(347,255,ls),
(347,189,o),
(313,159,o),
(265,159,cs),
(208,159,o),
(189,195,o),
(169,235,c),
(22,141,l),
(61,50,o),
(153,-16,o),
(263,-16,cs),
(423,-16,o),
(537,77,o),
(537,209,c)
);
}
);
width = 597;
}
);
metricRight = "=I-10";
unicode = 74;
},
{
glyphname = K;
lastChange = "2021-05-15 04:35:12 +0000";
layers = (
{
layerId = m01;
shapes = (
{
closed = 1;
nodes = (
(160,0,l),
(160,700,l),
(100,700,l),
(100,0,l)
);
},
{
closed = 1;
nodes = (
(149,264,l),
(569,700,l),
(491,700,l),
(108,305,l)
);
},
{
closed = 1;
nodes = (
(215,356,l),
(506,0,l),
(583,0,l),
(254,399,l)
);
}
);
width = 588;
},
{
layerId = "747A0BA5-337F-45E8-9896-B2CAF0968805";
shapes = (
{
closed = 1;
nodes = (
(260,0,l),
(260,700,l),
(70,700,l),
(70,0,l)
);
},
{
closed = 1;
nodes = (
(169,119,l),
(709,700,l),
(461,700,l),
(169,378,l)
);
},
{
closed = 1;
nodes = (
(210,356,l),
(481,0,l),
(718,0,l),
(356,464,l)
);
}
);
width = 728;
}
);
metricLeft = "=I";
unicode = 75;
},
{
glyphname = L;
lastChange = "2021-05-12 04:54:54 +0000";
layers = (
{
layerId = m01;
shapes = (
{
closed = 1;
nodes = (
(100,0,l),
(164,0,l),
(164,700,l),
(100,700,l)
);
},
{
closed = 1;
nodes = (
(164,0,l),
(503,0,l),
(503,58,l),
(164,58,l)
);
}
);
width = 513;
},
{
layerId = "747A0BA5-337F-45E8-9896-B2CAF0968805";
shapes = (
{
closed = 1;
nodes = (
(70,0,l),
(260,0,l),
(260,700,l),
(70,700,l)
);
},
{
closed = 1;
nodes = (
(184,0,l),
(523,0,l),
(523,170,l),
(184,170,l)
);
}
);
width = 543;
}
);
metricLeft = I;
unicode = 76;
},
{
glyphname = M;
lastChange = "2021-05-29 15:49:10 +0000";
layers = (
{
layerId = m01;
shapes = (
{
closed = 1;
nodes = (
(164,700,l),
(100,700,l),
(100,0,l),
(164,0,l)
);
},
{
closed = 1;
nodes = (
(164,700,l),
(116,663,l),
(420,211,l),
(451,275,l)
);
},
{
closed = 1;
nodes = (
(420,211,l),
(723,663,l),
(675,700,l),
(389,275,l)
);
},
{
closed = 1;
nodes = (
(739,0,l),
(739,700,l),
(675,700,l),
(675,0,l)
);
}
);
width = 839;
},
{
background = {
shapes = (
{
closed = 1;
nodes = (
(260,700,l),
(212,663,l),
(516,211,l),
(547,275,l)
);
}
);
};
layerId = "747A0BA5-337F-45E8-9896-B2CAF0968805";
shapes = (
{
closed = 1;
nodes = (
(260,700,l),
(70,700,l),
(70,0,l),
(260,0,l)
);
},
{
closed = 1;
nodes = (
(280,700,l),
(70,700,l),
(444,156,l),
(544,309,l)
);
},
{
closed = 1;
nodes = (
(444,156,l),
(818,700,l),
(608,700,l),
(344,309,l)
);
},
{
closed = 1;
nodes = (
(818,0,l),
(818,700,l),
(628,700,l),
(628,0,l)
);
}
);
width = 888;
}
);
metricLeft = I;
metricRight = I;
unicode = 77;
},
{
glyphname = N;
lastChange = "2021-06-25 18:46:13 +0000";
layers = (
{
layerId = m01;
shapes = (
{
closed = 1;
nodes = (
(164,655,l),
(164,700,l),
(100,700,l),
(100,0,l),
(164,0,l)
);
},
{
closed = 1;
nodes = (
(674,0,l),
(674,700,l),
(610,700,l),
(610,0,l)
);
},
{
closed = 1;
nodes = (
(659,37,l),
(164,700,l),
(115,664,l),
(610,0,l)
);
}
);
width = 774;
},
{
layerId = "747A0BA5-337F-45E8-9896-B2CAF0968805";
shapes = (
{
closed = 1;
nodes = (
(260,529,l),
(265,700,l),
(70,700,l),
(70,0,l),
(260,-1,l)
);
},
{
closed = 1;
nodes = (
(698,0,l),
(698,700,l),
(508,700,l),
(508,0,l)
);
},
{
closed = 1;
nodes = (
(657,96,l),
(265,700,l),
(112,608,l),
(508,0,l)
);
}
);
width = 768;
}
);
metricLeft = I;
metricRight = I;
unicode = 78;
},
{
glyphname = O;
lastChange = "2021-06-02 07:16:34 +0000";
layers = (
{
layerId = m01;
shapes = (
{
closed = 1;
nodes = (
(584,-16,o),
(722,135,o),
(722,350,cs),
(722,564,o),
(584,716,o),
(386,716,cs),
(188,716,o),
(50,565,o),
(50,350,cs),
(50,135,o),
(191,-16,o),
(389,-16,cs)
);
},
{
closed = 1;
nodes = (
(228,42,o),
(114,170,o),
(114,350,cs),
(114,530,o),
(227,658,o),
(386,658,cs),
(545,658,o),
(658,530,o),
(658,350,cs),
(658,170,o),
(547,42,o),
(389,42,cs)
);
}
);
width = 772;
},
{
layerId = "747A0BA5-337F-45E8-9896-B2CAF0968805";
shapes = (
{
closed = 1;
nodes = (
(607,-16,o),
(757,135,o),
(757,349,cs),
(757,563,o),
(606,715,o),
(393,715,cs),
(180,715,o),
(30,563,o),
(30,349,cs),
(30,135,o),
(181,-16,o),
(395,-16,cs)
);
},
{
closed = 1;
nodes = (
(292,164,o),
(220,241,o),
(220,349,cs),
(220,458,o),
(292,535,o),
(393,535,cs),
(495,535,o),
(567,458,o),
(567,349,cs),
(567,241,o),
(496,164,o),
(395,164,cs)
);
}
);
width = 787;
}
);
unicode = 79;
},
{
glyphname = P;
lastChange = "2021-05-30 14:28:56 +0000";
layers = (
{
layerId = m01;
shapes = (
{
closed = 1;
nodes = (
(164,0,l),
(164,700,l),
(100,700,l),
(100,0,l)
);
},
{
closed = 1;
nodes = (
(164,325,l),
(164,266,l),
(342,266,l),
(458,266,o),
(540,356,o),
(540,483,c),
(540,611,o),
(447,701,o),
(315,701,c),
(164,700,l),
(164,642,l),
(315,642,l),
(410,643,o),
(477,577,o),
(477,483,c),
(477,390,o),
(421,325,o),
(342,325,c),
(164,325,l),
(164,266,l)
);
}
);
width = 570;
},
{
layerId = "747A0BA5-337F-45E8-9896-B2CAF0968805";
shapes = (
{
closed = 1;
nodes = (
(250,0,l),
(250,700,l),
(70,700,l),
(70,0,l)
);
},
{
closed = 1;
nodes = (
(224,325,l),
(224,211,l),
(355,211,l),
(499,211,o),
(600,312,o),
(600,456,c),
(600,600,o),
(499,701,o),
(355,701,c),
(224,700,l),
(224,531,l),
(345,531,l),
(395,531,o),
(430,500,o),
(430,456,c),
(430,411,o),
(395,380,o),
(345,380,c),
(224,380,l),
(224,211,l)
);
}
);
width = 610;
}
);
metricLeft = I;
metricRight = "=O-20";
unicode = 80;
},
{
glyphname = Q;
lastChange = "2021-05-30 14:45:39 +0000";
layers = (
{
layerId = m01;
shapes = (
{
closed = 1;
nodes = (
(584,-16,o),
(722,135,o),
(722,350,cs),
(722,564,o),
(584,716,o),
(386,716,cs),
(188,716,o),
(50,565,o),
(50,350,cs),
(50,135,o),
(191,-16,o),
(389,-16,cs)
);
},
{
closed = 1;
nodes = (
(228,42,o),
(114,170,o),
(114,350,cs),
(114,530,o),
(227,658,o),
(386,658,cs),
(545,658,o),
(658,530,o),
(658,350,cs),
(658,170,o),
(547,42,o),
(389,42,cs)
);
},
{
closed = 1;
nodes = (
(437,211,l),
(684,-38,l),
(726,5,l),
(481,253,l)
);
},
{
closed = 0;
nodes = (
(538,280,l)
);
}
);
width = 776;
},
{
layerId = "747A0BA5-337F-45E8-9896-B2CAF0968805";
shapes = (
{
closed = 1;
nodes = (
(607,-16,o),
(757,135,o),
(757,349,cs),
(757,563,o),
(606,715,o),
(393,715,cs),
(180,715,o),
(30,563,o),
(30,349,cs),
(30,135,o),
(181,-16,o),
(395,-16,cs)
);
},
{
closed = 1;
nodes = (
(292,164,o),
(220,241,o),
(220,349,cs),
(220,458,o),
(292,535,o),
(393,535,cs),
(495,535,o),
(567,458,o),
(567,349,cs),
(567,241,o),
(496,164,o),
(395,164,cs)
);
},
{
closed = 1;
nodes = (
(373,217,l),
(645,-59,l),
(760,53,l),
(490,328,l)
);
},
{
closed = 0;
nodes = (
(546,280,l)
);
}
);
width = 790;
}
);
metricLeft = O;
metricRight = O;
unicode = 81;
},
{
glyphname = R;
lastChange = "2021-06-25 18:30:09 +0000";
layers = (
{
layerId = m01;
shapes = (
{
closed = 1;
nodes = (
(302,286,ls),
(436,286,o),
(540,372,o),
(540,493,cs),
(540,615,o),
(447,701,o),
(315,701,cs),
(164,700,l),
(164,642,l),
(315,642,ls),
(410,643,o),
(477,581,o),
(477,493,cs),
(477,406,o),
(411,345,o),
(332,345,cs),
(164,345,l),
(164,286,l)
);
},
{
closed = 1;
nodes = (
(164,0,l),
(164,700,l),
(100,700,l),
(100,0,l)
);
},
{
closed = 1;
nodes = (
(568,0,l),
(381,321,l),
(328,290,l),
(498,0,l)
);
}
);
width = 618;
},
{
layerId = "747A0BA5-337F-45E8-9896-B2CAF0968805";
shapes = (
{
closed = 1;
nodes = (
(355,231,ls),
(499,231,o),
(600,328,o),
(600,466,cs),
(600,604,o),
(499,702,o),
(355,701,cs),
(224,700,l),
(224,539,l),
(345,539,ls),
(395,539,o),
(427,510,o),
(427,470,cs),
(427,430,o),
(395,400,o),
(345,400,cs),
(224,400,l),
(224,231,l)
);
},
{
closed = 1;
nodes = (
(250,0,l),
(250,700,l),
(70,700,l),
(70,0,l)
);
},
{
closed = 1;
nodes = (
(673,0,l),
(425,379,l),
(295,275,l),
(461,0,l)
);
}
);
width = 678;
}
);
metricLeft = I;
unicode = 82;
},
{
glyphname = S;
lastChange = "2021-06-25 07:01:07 +0000";
layers = (
{
anchors = (
{
name = bottom;
pos = (305,0);
},
{
name = top;
pos = (305,700);
}
);
layerId = m01;
shapes = (
{
closed = 1;
nodes = (
(99,36,o),
(192,-16,o),
(316,-16,cs),
(475,-16,o),
(571,79,o),
(572,183,cs),
(573,279,o),
(484,353,o),
(339,382,cs),
(210,408,o),
(137,442,o),
(137,522,cs),
(137,598,o),
(206,659,o),
(307,659,cs),
(391,659,o),
(459,617,o),
(515,542,c),
(566,576,l),
(506,665,o),
(433,716,o),
(319,716,cs),
(170,716,o),
(73,641,o),
(73,513,cs),
(73,395,o),
(160,357,o),
(313,323,cs),
(434,296,o),
(506,246,o),
(506,174,cs),
(506,100,o),
(429,40,o),
(301,40,cs),
(199,40,o),
(141,85,o),
(89,161,c),
(40,123,l)
);
}
);
width = 609;
},
{
anchors = (
{
name = bottom;
pos = (307,0);
},
{
name = top;
pos = (307,700);
}
);
layerId = "747A0BA5-337F-45E8-9896-B2CAF0968805";
shapes = (
{
closed = 1;
nodes = (
(71,38,o),
(188,-17,o),
(307,-17,cs),
(484,-17,o),
(588,70,o),
(588,216,cs),
(588,313,o),
(533,383,o),
(406,414,cs),
(321,435,o),
(248,435,o),
(248,494,cs),
(248,524,o),
(270,550,o),
(316,550,cs),
(373,550,o),
(415,525,o),
(438,499,c),
(589,599,l),
(528,673,o),
(429,717,o),
(323,717,cs),
(148,717,o),
(45,641,o),
(45,509,cs),
(45,389,o),
(116,308,o),
(270,280,cs),
(336,267,o),
(391,252,o),
(391,205,cs),
(391,172,o),
(366,153,o),
(312,153,cs),
(243,153,o),
(189,189,o),
(170,233,c),
(20,130,l)
);
}
);
width = 614;
}
);
unicode = 83;
},
{
glyphname = T;
lastChange = "2021-06-02 07:19:31 +0000";
layers = (
{
layerId = m01;
shapes = (
{
closed = 1;
nodes = (
(210,0,l),
(274,0,l),
(274,642,l),
(210,642,l)
);
},
{
closed = 1;
nodes = (
(10,642,l),
(510,642,l),
(510,700,l),
(10,700,l)
);
}
);
width = 520;
},
{
layerId = "747A0BA5-337F-45E8-9896-B2CAF0968805";
shapes = (
{
closed = 1;
nodes = (
(225,0,l),
(415,0,l),
(415,642,l),
(225,642,l)
);
},
{
closed = 1;
nodes = (
(20,530,l),
(620,530,l),
(620,700,l),
(20,700,l)
);
}
);
width = 640;
}
);
unicode = 84;
},
{
glyphname = U;
lastChange = "2021-05-12 04:54:44 +0000";
layers = (
{
layerId = m01;
shapes = (
{
closed = 1;
nodes = (
(134,245,l),
(134,700,l),
(70,700,l),
(70,245,l)
);
},
{
closed = 1;
nodes = (
(599,245,l),
(599,700,l),
(535,700,l),
(535,245,l)
);
},
{
closed = 1;
nodes = (
(535,126,o),
(452,42,o),
(334,42,cs),
(217,42,o),
(134,126,o),
(134,245,c),
(70,245,l),
(70,92,o),
(179,-16,o),
(332,-16,cs),
(488,-16,o),
(599,92,o),
(599,245,c),
(535,245,l)
);
}
);
width = 669;
},
{
background = {
shapes = (
{
closed = 1;
nodes = (
(620,700,l),
(430,700,l),
(430,258,ls),
(430,205,o),
(395,167,o),
(346,167,cs),
(313,167,o),
(283,189,o),
(270,220,c),
(93,120,l),
(133,40,o),
(238,-13,o),
(346,-13,cs),
(506,-13,o),
(620,80,o),
(620,212,c)
);
}
);
};
layerId = "747A0BA5-337F-45E8-9896-B2CAF0968805";
shapes = (
{
closed = 1;
nodes = (
(230,265,l),
(230,700,l),
(40,700,l),
(40,265,l)
);
},
{
closed = 1;
nodes = (
(620,265,l),
(620,700,l),
(430,700,l),
(430,265,l)
);
},
{
closed = 1;
nodes = (
(430,195,o),
(393,154,o),
(330,154,cs),
(267,154,o),
(230,195,o),
(230,265,c),
(40,265,l),
(40,88,o),
(147,-16,o),
(328,-16,cs),
(512,-16,o),
(620,88,o),
(620,265,c),
(430,265,l)
);
}
);
width = 660;
}
);
metricLeft = "=I-30";
metricRight = "=I-30";
unicode = 85;
},
{
glyphname = V;
lastChange = "2021-06-02 07:17:30 +0000";
layers = (
{
layerId = m01;
shapes = (
{
closed = 1;
nodes = (
(304,0,l),
(369,0,l),
(76,700,l),
(10,700,l)
);
},
{
closed = 1;
nodes = (
(604,700,l),
(310,0,l),
(376,0,l),
(671,700,l)
);
}
);
width = 681;
},
{
layerId = "747A0BA5-337F-45E8-9896-B2CAF0968805";
shapes = (
{
closed = 1;
nodes = (
(254,0,l),
(439,0,l),
(201,700,l),
(5,700,l)
);
},
{
closed = 1;
nodes = (
(513,700,l),
(277,0,l),
(462,0,l),
(709,700,l)
);
}
);
width = 714;
}
);
metricLeft = A;
metricRight = A;
unicode = 86;
},
{
glyphname = W;
lastChange = "2021-06-27 07:09:06 +0000";
layers = (
{
background = {
shapes = (
{
closed = 1;
nodes = (
(341,0,l),
(170,500,l),
(110,500,l),
(280,0,l)
);
},
{
closed = 1;
nodes = (
(342,0,l),
(513,500,l),
(453,500,l),
(281,0,l)
);
},
{
closed = 1;
nodes = (
(684,0,l),
(513,500,l),
(453,500,l),
(623,0,l)
);
},
{
closed = 1;
nodes = (
(684,0,l),
(854,500,l),
(794,500,l),
(623,0,l)
);
}
);
};
layerId = m01;
shapes = (
{
closed = 1;
nodes = (
(291,0,l),
(74,700,l),
(10,700,l),
(226,0,l)
);
},
{
closed = 1;
nodes = (
(296,0,l),
(507,700,l),
(443,700,l),
(231,0,l)
);
},
{
closed = 1;
nodes = (
(714,0,l),
(507,700,l),
(443,700,l),
(649,0,l)
);
},
{
closed = 1;
nodes = (
(719,0,l),
(940,700,l),
(876,700,l),
(654,0,l)
);
}
);
width = 950;
},
{
layerId = "747A0BA5-337F-45E8-9896-B2CAF0968805";
shapes = (
{
closed = 1;
nodes = (
(376,0,l),
(189,700,l),
(5,700,l),
(201,0,l)
);
},
{
closed = 1;
nodes = (
(396,0,l),
(572,700,l),
(408,700,l),
(231,0,l)
);
},
{
closed = 1;
nodes = (
(779,0,l),
(592,700,l),
(428,700,l),
(604,0,l)
);
},
{
closed = 1;
nodes = (
(799,0,l),
(995,700,l),
(811,700,l),
(624,0,l)
);
}
);
width = 1000;
}
);
metricLeft = A;
metricRight = A;
unicode = 87;
},
{
glyphname = X;
lastChange = "2021-05-30 14:34:27 +0000";
layers = (
{
layerId = m01;
shapes = (
{
closed = 1;
nodes = (
(503,700,l),
(280,385,l),
(10,0,l),
(88,0,l),
(313,330,l),
(579,700,l)
);
},
{
closed = 1;
nodes = (
(276,330,l),
(501,0,l),
(579,0,l),
(309,385,l),
(86,700,l),
(10,700,l)
);
}
);
width = 589;
},
{
layerId = "747A0BA5-337F-45E8-9896-B2CAF0968805";
shapes = (
{
closed = 1;
nodes = (
(503,700,l),
(285,385,l),
(10,0,l),
(238,0,l),
(458,330,l),
(729,700,l)
);
},
{
closed = 1;
nodes = (
(281,330,l),
(501,0,l),
(729,0,l),
(454,385,l),
(236,700,l),
(10,700,l)
);
}
);
width = 739;
}
);
unicode = 88;
},
{
glyphname = Y;
lastChange = "2021-06-02 19:08:45 +0000";
layers = (
{
layerId = m01;
shapes = (
{
closed = 1;
nodes = (
(262,0,l),
(326,0,l),
(326,336,l),
(262,336,l)
);
},
{
closed = 1;
nodes = (
(262,292,l),
(313,328,l),
(85,700,l),
(10,700,l)
);
},
{
closed = 1;
nodes = (
(503,700,l),
(275,328,l),
(326,292,l),
(578,700,l)
);
}
);
width = 588;
},
{
layerId = "747A0BA5-337F-45E8-9896-B2CAF0968805";
shapes = (
{
closed = 1;
nodes = (
(253,0,l),
(443,0,l),
(443,336,l),
(253,336,l)
);
},
{
closed = 1;
nodes = (
(262,292,l),
(443,328,l),
(215,700,l),
(10,700,l)
);
},
{
closed = 1;
nodes = (
(481,700,l),
(253,328,l),
(434,292,l),
(686,700,l)
);
}
);
width = 696;
}
);
unicode = 89;
},
{
glyphname = Z;
lastChange = "2021-05-30 14:33:27 +0000";
layers = (
{
layerId = m01;
shapes = (
{
closed = 1;
nodes = (
(594,642,l),
(594,700,l),
(53,700,l),
(53,642,l)
);
},
{
closed = 1;
nodes = (
(591,0,l),
(591,58,l),
(50,58,l),
(50,0,l)
);
},
{
closed = 1;
nodes = (
(50,58,l),
(103,25,l),
(594,642,l),
(541,674,l)
);
}
);
width = 644;
},
{
layerId = "747A0BA5-337F-45E8-9896-B2CAF0968805";
shapes = (
{
closed = 1;
nodes = (
(584,520,l),
(584,700,l),
(43,700,l),
(43,520,l)
);
},
{
closed = 1;
nodes = (
(581,0,l),
(581,180,l),
(40,180,l),
(40,0,l)
);
},
{
closed = 1;
nodes = (
(40,180,l),
(287,180,l),
(584,520,l),
(337,520,l)
);
}
);
width = 624;
}
);
unicode = 90;
},
{
glyphname = a;
kernLeft = "round-left-lowercase";
kernRight = "round-right-lowercase";
lastChange = "2021-06-27 06:30:39 +0000";
layers = (
{
guides = (
{
pos = (250,252);
},
{
pos = (242,307);
}
);
layerId = m01;
shapes = (
{
closed = 1;
nodes = (
(451,0,l),
(451,272,ls),
(451,436,o),
(384,516,o),
(246,516,c),
(176,516,o),
(117,489,o),
(68,434,c),
(103,395,l),
(147,439,o),
(194,461,o),
(246,461,cs),
(338,461,o),
(386,399,o),
(391,272,cs),
(401,0,l)
);
},
{
closed = 1;
nodes = (
(371,-16,o),
(447,75,o),
(447,214,c),
(392,214,l),
(392,110,o),
(335,39,o),
(238,39,cs),
(154,39,o),
(105,77,o),
(105,141,c),
(105,211,o),
(147,252,o),
(250,252,cs),
(430,252,l),
(430,307,l),
(242,307,l),
(118,307,o),
(45,245,o),
(45,141,cs),
(45,42,o),
(118,-16,o),
(242,-16,cs)
);
}
);
width = 511;
},
{
guides = (
{
angle = 180;
pos = (379,294);
}
);
layerId = "747A0BA5-337F-45E8-9896-B2CAF0968805";
shapes = (
{
closed = 1;
nodes = (
(529,0,l),
(529,285,ls),
(529,423,o),
(436,516,o),
(276,516,cs),
(187,516,o),
(90,481,o),
(43,426,c),
(142,324,l),
(178,351,o),
(226,363,o),
(269,363,cs),
(351,363,o),
(360,316,o),
(360,249,cs),
(360,0,l)
);
},
{
closed = 1;
nodes = (
(345,-16,o),
(411,69,o),
(411,214,c),
(360,191,l),
(360,136,o),
(335,104,o),
(293,104,cs),
(243,104,o),
(214,123,o),
(214,154,c),
(214,189,o),
(246,209,o),
(301,209,c),
(379,209,l),
(379,294,l),
(232,294,l),
(108,294,o),
(35,245,o),
(35,141,cs),
(35,42,o),
(108,-16,o),
(232,-16,cs)
);
}
);
width = 569;
},
{
associatedMasterId = m01;
layerId = "CB0AF63B-738D-442B-AE33-6FAC0C554570";
name = "21 Jun 21, 13:35";
shapes = (
{
closed = 1;
nodes = (
(451,0,l),
(451,272,ls),
(451,436,o),
(384,516,o),
(246,516,c),
(176,516,o),
(117,489,o),
(68,434,c),
(103,395,l),
(147,439,o),
(194,461,o),
(246,461,cs),
(338,461,o),
(386,399,o),
(391,272,cs),
(401,0,l)
);
},
{
closed = 1;
nodes = (
(371,-16,o),
(447,75,o),
(447,214,c),
(392,214,l),
(392,110,o),
(335,39,o),
(238,39,cs),
(154,39,o),
(105,77,o),
(105,141,c),
(105,211,o),
(159,252,o),
(250,252,cs),
(299,252,o),
(355,236,o),
(401,209,c),
(415,264,l),
(376,291,o),
(312,307,o),
(242,307,cs),
(118,307,o),
(45,245,o),
(45,141,cs),
(45,42,o),
(118,-16,o),
(242,-16,cs)
);
}
);
width = 511;
},
{
associatedMasterId = "747A0BA5-337F-45E8-9896-B2CAF0968805";
layerId = "45C67C7D-FBF1-4189-85B2-8F8292167A26";
name = "21 Jun 21, 13:37";
shapes = (
{
closed = 1;
nodes = (
(519,0,l),
(519,285,ls),
(519,423,o),
(414,520,o),
(266,520,cs),
(177,520,o),
(80,481,o),
(33,426,c),
(135,317,l),
(177,348,o),
(225,363,o),
(259,363,cs),
(319,363,o),
(350,316,o),
(350,249,cs),
(350,0,l)
);
},
{
closed = 1;
nodes = (
(335,-16,o),
(401,69,o),
(401,214,c),
(350,191,l),
(350,136,o),
(325,104,o),
(283,104,cs),
(233,104,o),
(204,123,o),
(204,154,c),
(204,189,o),
(236,209,o),
(291,209,cs),
(315,209,o),
(338,200,o),
(355,184,c),
(378,254,l),
(340,287,o),
(282,307,o),
(222,307,cs),
(98,307,o),
(25,245,o),
(25,141,cs),
(25,42,o),
(98,-16,o),
(222,-16,cs)
);
}
);
width = 559;
},
{
associatedMasterId = m01;
attr = {
coordinates = (
700
);
};
guides = (
{
pos = (256,252);
},
{
pos = (248,307);
}
);
layerId = "02AAAEA1-AFBF-4DBF-9BCC-F2B650B51EF0";
name = Bold;
shapes = (
{
closed = 1;
nodes = (
(502,0,l),
(502,281,ls),
(502,427,o),
(418,516,o),
(265,516,c),
(183,516,o),
(98,484,o),
(51,429,c),
(128,348,l),
(167,380,o),
(215,396,o),
(261,396,cs),
(346,396,o),
(368,344,o),
(370,257,cs),
(373,0,l)
);
},
{
closed = 1;
nodes = (
(353,-16,o),
(422,71,o),
(422,214,c),
(370,199,l),
(370,128,o),
(325,84,o),
(251,84,cs),
(204,84,o),
(177,109,o),
(177,150,c),
(177,184,o),
(212,204,o),
(283,204,cs),
(395,204,l),
(395,298,l),
(235,298,l),
(111,298,o),
(38,245,o),
(38,141,cs),
(38,42,o),
(111,-16,o),
(235,-16,cs)
);
}
);
width = 548;
}
);
metricLeft = o;
metricRight = n;
unicode = 97;
},
{
glyphname = b;
kernRight = "round-right-lowercase";
lastChange = "2021-06-25 18:08:45 +0000";
layers = (
{
layerId = m01;
shapes = (
{
closed = 1;
nodes = (
(135,93,l),
(135,700,l),
(75,700,l),
(75,0,l),
(132,0,l)
);
},
{
pos = (582,0);
ref = Bowl;
scale = (-1,1);
}
);
width = 582;
},
{
layerId = "747A0BA5-337F-45E8-9896-B2CAF0968805";
shapes = (
{
closed = 1;
nodes = (
(235,93,l),
(235,700,l),
(55,700,l),
(55,0,l),
(226,0,l)
);
},
{
pos = (606,0);
ref = Bowl;
scale = (-1,1);
}
);
width = 630;
}
);
metricLeft = l;
metricRight = o;
unicode = 98;
},
{
glyphname = c;
kernLeft = "round-left-lowercase";
kernRight = "round-right-lowercase";
lastChange = "2021-06-25 18:10:18 +0000";
layers = (
{
background = {
shapes = (
{
closed = 1;
nodes = (
(508,243,l),
(508,402,o),
(416,515,o),
(286,515,cs),
(145,515,o),
(45,405,o),
(45,250,cs),
(45,94,o),
(147,-16,o),
(291,-16,cs),
(378,-16,o),
(467,40,o),
(506,118,c),
(453,145,l),
(422,83,o),
(355,39,o),
(291,39,cs),
(182,39,o),
(105,126,o),
(105,250,cs),
(105,373,o),
(180,460,o),
(286,460,cs),
(381,460,o),
(448,370,o),
(448,243,c)
);
},
{
closed = 1;
nodes = (
(86,243,l),
(465,243,l),
(465,293,l),
(86,293,l)
);
}
);
};
layerId = m01;
shapes = (
{
closed = 1;
nodes = (
(500,393,l),
(460,469,o),
(383,516,o),
(289,516,cs),
(146,516,o),
(45,406,o),
(45,250,cs),
(45,94,o),
(147,-16,o),
(291,-16,cs),
(387,-16,o),
(464,36,o),
(504,119,c),
(451,147,l),
(421,80,o),
(363,39,o),
(291,39,cs),
(182,39,o),
(105,126,o),
(105,250,cs),
(105,374,o),
(181,461,o),
(289,461,cs),
(359,461,o),
(417,424,o),
(448,365,c)
);
}
);
width = 539;
},
{
background = {
shapes = (
{
closed = 1;
nodes = (
(472,-16,o),
(586,94,o),
(586,250,cs),
(586,406,o),
(472,516,o),
(310,516,cs),
(149,516,o),
(35,406,o),
(35,250,cs),
(35,94,o),
(150,-16,o),
(312,-16,cs)
);
},
{
closed = 1;
nodes = (
(255,154,o),
(215,194,o),
(215,250,cs),
(215,306,o),
(254,346,o),
(310,346,cs),
(366,346,o),
(406,306,o),
(406,250,cs),
(406,194,o),
(367,154,o),
(312,154,cs)
);
}
);
};
layerId = "747A0BA5-337F-45E8-9896-B2CAF0968805";
shapes = (
{
closed = 1;
nodes = (
(559,352,l),
(522,452,o),
(430,516,o),
(310,516,cs),
(149,516,o),
(35,406,o),
(35,250,cs),
(35,94,o),
(150,-16,o),
(312,-16,cs),
(431,-16,o),
(523,49,o),
(560,149,c),
(388,204,l),
(375,174,o),
(347,154,o),
(312,154,cs),
(255,154,o),
(215,194,o),
(215,250,cs),
(215,306,o),
(254,346,o),
(310,346,cs),
(345,346,o),
(374,327,o),
(387,296,c)
);
}
);
width = 585;
}
);
metricLeft = o;
metricRight = "=e-5";
unicode = 99;
},
{
glyphname = d;
kernLeft = "round-left-lowercase";
lastChange = "2021-06-25 18:08:34 +0000";
layers = (
{
layerId = m01;
shapes = (
{
closed = 1;
nodes = (
(507,0,l),
(507,700,l),
(447,700,l),
(447,93,l),
(450,0,l)
);
},
{
ref = Bowl;
}
);
width = 582;
},
{
background = {
shapes = (
{
pos = (436,0);
ref = arch;
scale = (-1,1);
},
{
angle = 180;
pos = (436,500);
ref = arch;
},
{
closed = 1;
nodes = (
(574,0,l),
(574,700,l),
(394,700,l),
(394,93,l),
(403,0,l)
);
}
);
};
layerId = "747A0BA5-337F-45E8-9896-B2CAF0968805";
shapes = (
{
closed = 1;
nodes = (
(574,0,l),
(574,700,l),
(394,700,l),
(394,93,l),
(403,0,l)
);
},
{
pos = (24,0);
ref = Bowl;
}
);
width = 629;
}
);
metricLeft = o;
metricRight = l;
unicode = 100;
},
{
glyphname = e;
kernLeft = "round-left-lowercase";
kernRight = "round-right-lowercase";
lastChange = "2021-06-27 06:56:30 +0000";
layers = (
{
background = {
shapes = (
{
closed = 1;
nodes = (
(433,-16,o),
(534,94,o),
(534,250,cs),
(534,406,o),
(433,516,o),
(289,516,cs),
(146,516,o),
(45,406,o),
(45,250,cs),
(45,94,o),
(147,-16,o),
(291,-16,cs)
);
},
{
closed = 1;
nodes = (
(182,39,o),
(105,126,o),
(105,250,cs),
(105,374,o),
(181,461,o),
(289,461,cs),
(397,461,o),
(474,374,o),
(474,250,cs),
(474,126,o),
(398,39,o),
(291,39,cs)
);
}
);
};
layerId = m01;
shapes = (
{
closed = 1;
nodes = (
(508,243,l),
(508,402,o),
(428,515,o),
(286,515,cs),
(145,515,o),
(45,405,o),
(45,250,cs),
(45,94,o),
(147,-16,o),
(291,-16,cs),
(392,-16,o),
(467,40,o),
(506,118,c),
(453,145,l),
(422,83,o),
(368,39,o),
(291,39,cs),
(182,39,o),
(105,126,o),
(105,250,cs),
(105,373,o),
(180,460,o),
(286,460,cs),
(394,460,o),
(448,370,o),
(448,243,c)
);
},
{
closed = 1;
nodes = (
(86,243,l),
(465,243,l),
(465,298,l),
(86,298,l)
);
}
);
width = 548;
},
{
background = {
shapes = (
{
closed = 1;
nodes = (
(472,-16,o),
(586,94,o),
(586,250,cs),
(586,406,o),
(472,516,o),
(310,516,cs),
(149,516,o),
(35,406,o),
(35,250,cs),
(35,94,o),
(150,-16,o),
(312,-16,cs)
);
},
{
closed = 1;
nodes = (
(255,154,o),
(215,194,o),
(215,250,cs),
(215,306,o),
(254,346,o),
(310,346,cs),
(366,346,o),
(406,306,o),
(406,250,cs),
(406,194,o),
(367,154,o),
(312,154,cs)
);
}
);
};
layerId = "747A0BA5-337F-45E8-9896-B2CAF0968805";
shapes = (
{
closed = 1;
nodes = (
(568,223,l),
(568,415,o),
(463,516,o),
(310,516,cs),
(147,516,o),
(35,406,o),
(35,250,cs),
(35,94,o),
(143,-16,o),
(296,-16,cs),
(399,-16,o),
(500,33,o),
(544,121,c),
(404,191,l),
(385,155,o),
(365,132,o),
(317,132,cs),
(250,132,o),
(202,177,o),
(202,265,cs),
(202,338,o),
(234,390,o),
(303,390,cs),
(386,390,o),
(405,321,o),
(405,223,c)
);
},
{
closed = 1;
nodes = (
(149,223,l),
(488,223,l),
(488,321,l),
(150,321,l)
);
}
);
width = 598;
},
{
associatedMasterId = m01;
attr = {
coordinates = (
700
);
};
background = {
shapes = (
{
closed = 1;
nodes = (
(439,-16,o),
(540,94,o),
(540,250,cs),
(540,406,o),
(439,516,o),
(295,516,cs),
(152,516,o),
(51,406,o),
(51,250,cs),
(51,94,o),
(153,-16,o),
(297,-16,cs)
);
},
{
closed = 1;
nodes = (
(188,39,o),
(111,126,o),
(111,250,cs),
(111,374,o),
(187,461,o),
(295,461,cs),
(403,461,o),
(480,374,o),
(480,250,cs),
(480,126,o),
(404,39,o),
(297,39,cs)
);
}
);
};
layerId = "2CA090D3-3F82-40CE-96C1-376CDE35D69A";
name = "Bold {700, 100}";
shapes = (
{
closed = 1;
nodes = (
(547,223,l),
(547,411,o),
(439,516,o),
(301,516,cs),
(147,516,o),
(38,406,o),
(38,250,cs),
(38,94,o),
(144,-16,o),
(294,-16,cs),
(391,-16,o),
(488,35,o),
(531,120,c),
(421,178,l),
(398,133,o),
(351,101,o),
(308,101,cs),
(229,101,o),
(174,162,o),
(174,249,cs),
(174,345,o),
(215,413,o),
(297,413,cs),
(381,413,o),
(419,330,o),
(419,223,c)
);
},
{
closed = 1;
nodes = (
(127,223,l),
(480,223,l),
(480,326,l),
(128,326,l)
);
}
);
width = 581;
}
);
metricLeft = o;
metricRight = "=o-5";
unicode = 101;
},
{
glyphname = f;
lastChange = "2021-06-25 17:52:35 +0000";
layers = (
{
layerId = m01;
shapes = (
{
closed = 1;
nodes = (
(30,445,l),
(338,445,l),
(338,500,l),
(30,500,l)
);
},
{
closed = 1;
nodes = (
(316,707,o),
(287,715,o),
(266,715,cs),
(171,715,o),
(125,665,o),
(125,563,cs),
(125,530,o),
(125,72,o),
(125,0,c),
(185,0,l),
(185,70,o),
(185,529,o),
(185,563,cs),
(185,628,o),
(210,660,o),
(261,660,cs),
(275,660,o),
(298,653,o),
(333,640,c),
(355,691,l)
);
}
);
width = 360;
},
{
layerId = "747A0BA5-337F-45E8-9896-B2CAF0968805";
shapes = (
{
closed = 1;
nodes = (
(20,360,l),
(378,360,l),
(378,500,l),
(20,500,l)
);
},
{
closed = 1;
nodes = (
(387,704,o),
(329,724,o),
(278,724,cs),
(154,724,o),
(95,654,o),
(95,543,cs),
(95,510,o),
(95,72,o),
(95,0,c),
(275,0,l),
(275,70,o),
(275,473,o),
(275,507,cs),
(275,555,o),
(286,572,o),
(313,572,cs),
(326,572,o),
(341,568,o),
(353,558,c),
(420,683,l)
);
}
);
width = 415;
}
);
unicode = 102;
},
{
glyphname = g;
kernLeft = "round-left-lowercase";
lastChange = "2021-06-25 18:08:45 +0000";
layers = (
{
background = {
shapes = (
{
closed = 1;
nodes = (
(444,50,l),
(444,-74,o),
(367,-161,o),
(258,-161,cs),
(186,-161,o),
(128,-120,o),
(98,-53,c),
(45,-81,l),
(85,-164,o),
(162,-216,o),
(258,-216,cs),
(402,-216,o),
(504,-106,o),
(504,50,c)
);
}
);
};
layerId = m01;
shapes = (
{
closed = 1;
nodes = (
(398,0,o),
(487,107,o),
(487,258,cs),
(487,410,o),
(398,516,o),
(271,516,cs),
(139,516,o),
(45,410,o),
(45,258,cs),
(45,107,o),
(139,0,o),
(271,0,cs)
);
},
{
closed = 1;
nodes = (
(179,53,o),
(105,138,o),
(105,258,cs),
(105,379,o),
(178,464,o),
(282,464,cs),
(379,464,o),
(447,379,o),
(447,258,c),
(447,138,o),
(379,53,o),
(283,53,cs)
);
},
{
closed = 1;
nodes = (
(507,500,l),
(447,500,l),
(447,46,ls),
(447,-78,o),
(370,-165,o),
(261,-165,cs),
(189,-165,o),
(131,-124,o),
(101,-57,c),
(48,-85,l),
(88,-168,o),
(165,-220,o),
(261,-220,cs),
(405,-220,o),
(507,-110,o),
(507,46,cs)
);
}
);
width = 582;
},
{
background = {
shapes = (
{
closed = 1;
nodes = (
(10,-136,o),
(125,-236,o),
(287,-236,cs),
(419,-236,o),
(507,-174,o),
(564,-79,c),
(426,-4,l),
(400,-42,o),
(347,-87,o),
(287,-87,cs),
(230,-87,o),
(190,-43,o),
(190,10,cs),
(190,500,l),
(10,500,l),
(10,-10,ls)
);
}
);
};
layerId = "747A0BA5-337F-45E8-9896-B2CAF0968805";
shapes = (
{
closed = 1;
nodes = (
(375,14,o),
(443,102,o),
(443,250,cs),
(443,416,o),
(375,514,o),
(261,514,cs),
(118,514,o),
(35,416,o),
(35,250,cs),
(35,102,o),
(119,14,o),
(261,14,cs)
);
},
{
closed = 1;
nodes = (
(260,168,o),
(224,205,o),
(223,257,cs),
(224,309,o),
(259,345,o),
(308,345,cs),
(359,345,o),
(395,309,o),
(395,257,cs),
(395,205,o),
(359,168,o),
(309,168,cs)
);
},
{
closed = 1;
nodes = (
(584,500,l),
(404,500,l),
(404,10,ls),
(404,-43,o),
(364,-87,o),
(307,-87,cs),
(247,-87,o),
(204,-65,o),
(188,-21,c),
(39,-87,l),
(64,-172,o),
(175,-236,o),
(307,-236,cs),
(469,-236,o),
(584,-136,o),
(584,-10,cs)
);
}
);
width = 639;
}
);
metricLeft = o;
metricRight = l;
unicode = 103;
},
{
glyphname = h;
lastChange = "2021-05-25 05:59:58 +0000";
layers = (
{
layerId = m01;
shapes = (
{
closed = 1;
nodes = (
(135,0,l),
(135,716,l),
(75,716,l),
(75,0,l)
);
},
{
closed = 1;
nodes = (
(494,0,l),
(494,286,l),
(434,256,l),
(434,0,l)
);
},
{
pos = (98,0);
ref = arch;
}
);
width = 559;
},
{
layerId = "747A0BA5-337F-45E8-9896-B2CAF0968805";
shapes = (
{
closed = 1;
nodes = (
(237,0,l),
(235,716,l),
(55,716,l),
(57,0,l)
);
},
{
closed = 1;
nodes = (
(550,0,l),
(550,286,l),
(370,256,l),
(370,0,l)
);
},
{
pos = (195,0);
ref = arch;
}
);
width = 595;
}
);
metricLeft = l;
metricRight = "=l-10";
unicode = 104;
},
{
glyphname = i;
lastChange = "2021-06-02 16:42:08 +0000";
layers = (
{
layerId = m01;
metricLeft = "=l-5";
metricRight = "=l-5";
shapes = (
{
closed = 1;
nodes = (
(139,0,l),
(141,500,l),
(81,500,l),
(79,0,l)
);
},
{
closed = 1;
nodes = (
(132,630,o),
(150,648,o),
(150,670,cs),
(150,692,o),
(132,710,o),
(110,710,cs),
(88,710,o),
(70,692,o),
(70,670,cs),
(70,648,o),
(88,630,o),
(110,630,cs)
);
}
);
width = 220;
},
{
layerId = "747A0BA5-337F-45E8-9896-B2CAF0968805";
metricLeft = "=l-10";
metricRight = "=l-10";
shapes = (
{
closed = 1;
nodes = (
(238,0,l),
(238,500,l),
(58,500,l),
(58,0,l)
);
},
{
closed = 1;
nodes = (
(204,542,o),
(251,589,o),
(251,645,cs),
(251,701,o),
(204,748,o),
(148,748,cs),
(92,748,o),
(45,701,o),
(45,645,cs),
(45,589,o),
(92,542,o),
(148,542,cs)
);
}
);
width = 296;
}
);
metricLeft = "=l-11";
metricRight = "=l-11";
unicode = 105;
},
{
glyphname = j;
lastChange = "2021-06-25 17:40:14 +0000";
layers = (
{
layerId = m01;
shapes = (
{
closed = 1;
nodes = (
(134,-215,o),
(180,-165,o),
(180,-63,cs),
(180,-30,o),
(180,428,o),
(180,500,c),
(120,500,l),
(120,430,o),
(120,-29,o),
(120,-63,cs),
(120,-128,o),
(95,-160,o),
(44,-160,cs),
(30,-160,o),
(7,-153,o),
(-28,-140,c),
(-50,-191,l),
(-11,-207,o),
(18,-215,o),
(39,-215,cs)
);
},
{
closed = 1;
nodes = (
(172,630,o),
(190,648,o),
(190,670,cs),
(190,692,o),
(172,710,o),
(150,710,cs),
(128,710,o),
(110,692,o),
(110,670,cs),
(110,648,o),
(128,630,o),
(150,630,cs)
);
}
);
width = 260;
},
{
layerId = "747A0BA5-337F-45E8-9896-B2CAF0968805";
shapes = (
{
closed = 1;
nodes = (
(178,-215,o),
(253,-143,o),
(253,-21,cs),
(253,10,o),
(253,431,o),
(253,500,c),
(73,500,l),
(73,430,o),
(73,27,o),
(73,-7,cs),
(73,-32,o),
(62,-47,o),
(44,-47,cs),
(31,-47,o),
(16,-41,o),
(4,-31,c),
(-70,-180,l),
(-40,-202,o),
(5,-215,o),
(52,-215,cs)
);
},
{
closed = 1;
nodes = (
(219,542,o),
(266,589,o),
(266,645,cs),
(266,701,o),
(219,748,o),
(163,748,cs),
(107,748,o),
(60,701,o),
(60,645,cs),
(60,589,o),
(107,542,o),
(163,542,cs)
);
}
);
width = 311;
}
);
metricRight = i;
unicode = 106;
},
{
glyphname = k;
kernRight = "indented-right-lowercase";
lastChange = "2021-06-25 17:59:51 +0000";
layers = (
{
layerId = m01;
shapes = (
{
closed = 1;
nodes = (
(135,0,l),
(135,700,l),
(75,700,l),
(75,0,l)
);
},
{
closed = 1;
nodes = (
(124,174,l),
(432,500,l),
(354,500,l),
(83,215,l)
);
},
{
closed = 1;
nodes = (
(161,294,l),
(401,0,l),
(478,0,l),
(200,337,l)
);
}
);
width = 478;
},
{
layerId = "747A0BA5-337F-45E8-9896-B2CAF0968805";
name = Black;
shapes = (
{
closed = 1;
nodes = (
(235,0,l),
(235,700,l),
(55,700,l),
(55,0,l)
);
},
{
closed = 1;
nodes = (
(225,75,l),
(575,500,l),
(349,500,l),
(97,193,l)
);
},
{
closed = 1;
nodes = (
(240,205,l),
(379,0,l),
(586,0,l),
(358,337,l)
);
}
);
width = 596;
}
);
metricLeft = l;
unicode = 107;
},
{
glyphname = l;
lastChange = "2021-06-27 07:00:24 +0000";
layers = (
{
layerId = m01;
shapes = (
{
closed = 1;
nodes = (
(135,0,l),
(137,742,l),
(77,742,l),
(75,0,l)
);
}
);
width = 212;
},
{
layerId = "747A0BA5-337F-45E8-9896-B2CAF0968805";
shapes = (
{
closed = 1;
nodes = (
(219,0,l),
(219,742,l),
(55,742,l),
(55,0,l)
);
}
);
width = 274;
}
);
unicode = 108;
},
{
glyphname = m;
kernLeft = short_lower_case;
lastChange = "2021-06-14 07:00:12 +0000";
layers = (
{
layerId = m01;
shapes = (
{
closed = 1;
nodes = (
(135,0,l),
(135,408,l),
(131,500,l),
(75,500,l),
(75,0,l)
);
},
{
pos = (98,0);
ref = arch;
},
{
closed = 1;
nodes = (
(494,0,l),
(494,286,l),
(434,256,l),
(434,0,l)
);
},
{
pos = (457,0);
ref = arch;
},
{
closed = 1;
nodes = (
(853,0,l),
(853,286,l),
(793,256,l),
(793,0,l)
);
}
);
width = 908;
},
{
layerId = "747A0BA5-337F-45E8-9896-B2CAF0968805";
shapes = (
{
closed = 1;
nodes = (
(235,0,l),
(235,408,l),
(225,500,l),
(55,500,l),
(55,0,l)
);
},
{
pos = (193,0);
ref = arch;
},
{
closed = 1;
nodes = (
(548,0,l),
(548,286,l),
(368,256,l),
(368,0,l)
);
},
{
pos = (506,0);
ref = arch;
},
{
closed = 1;
nodes = (
(861,0,l),
(861,286,l),
(681,256,l),
(681,0,l)
);
}
);
width = 896;
}
);
metricLeft = l;
metricRight = "=l-20";
unicode = 109;
},
{
glyphname = n;
kernLeft = short_lower_case;
lastChange = "2021-06-14 07:02:31 +0000";
layers = (
{
layerId = m01;
shapes = (
{
closed = 1;
nodes = (
(135,0,l),
(135,408,l),
(131,500,l),
(75,500,l),
(75,0,l)
);
},
{
closed = 1;
nodes = (
(494,0,l),
(494,286,l),
(434,256,l),
(434,0,l)
);
},
{
pos = (98,0);
ref = arch;
}
);
width = 554;
},
{
background = {
shapes = (
{
pos = (606,0);
ref = Bowl;
scale = (-1,1);
}
);
};
layerId = "747A0BA5-337F-45E8-9896-B2CAF0968805";
shapes = (
{
closed = 1;
nodes = (
(235,0,l),
(235,408,l),
(225,500,l),
(55,500,l),
(55,0,l)
);
},
{
closed = 1;
nodes = (
(548,0,l),
(548,286,l),
(368,256,l),
(368,0,l)
);
},
{
pos = (193,0);
ref = arch;
}
);
width = 588;
}
);
metricLeft = l;
metricRight = "=l-15";
unicode = 110;
},
{
glyphname = o;
kernLeft = "round-left-lowercase";
kernRight = "round-right-lowercase";
lastChange = "2021-06-27 07:05:14 +0000";
layers = (
{
anchors = (
{
name = bottom;
pos = (290,0);
},
{
name = center;
pos = (290,250);
},
{
name = ogonek;
pos = (521,10);
},
{
name = top;
pos = (290,500);
},
{
name = topright;
pos = (559,500);
}
);
layerId = m01;
shapes = (
{
closed = 1;
nodes = (
(433,-16,o),
(534,94,o),
(534,250,cs),
(534,406,o),
(433,516,o),
(289,516,cs),
(146,516,o),
(45,406,o),
(45,250,cs),
(45,94,o),
(147,-16,o),
(291,-16,cs)
);
},
{
closed = 1;
nodes = (
(182,39,o),
(105,126,o),
(105,250,cs),
(105,374,o),
(181,461,o),
(289,461,cs),
(397,461,o),
(474,374,o),
(474,250,cs),
(474,126,o),
(398,39,o),
(291,39,cs)
);
}
);
width = 579;
},
{
anchors = (
{
name = bottom;
pos = (301,0);
},
{
name = center;
pos = (301,250);
},
{
name = ogonek;
pos = (541,10);
},
{
name = top;
pos = (301,500);
},
{
name = topright;
pos = (581,500);
}
);
layerId = "747A0BA5-337F-45E8-9896-B2CAF0968805";
shapes = (
{
closed = 1;
nodes = (
(462,-16,o),
(566,94,o),
(566,250,cs),
(566,406,o),
(462,516,o),
(300,516,cs),
(139,516,o),
(35,406,o),
(35,250,cs),
(35,94,o),
(140,-16,o),
(302,-16,cs)
);
},
{
closed = 1;
nodes = (
(251,151,o),
(215,192,o),
(215,251,cs),
(215,309,o),
(250,350,o),
(300,350,cs),
(350,350,o),
(386,309,o),
(386,251,cs),
(386,192,o),
(351,151,o),
(302,151,cs)
);
}
);
width = 601;
}
);
unicode = 111;
},
{
glyphname = p;
kernLeft = short_lower_case;
kernRight = "round-right-lowercase";
lastChange = "2021-06-25 18:08:45 +0000";
layers = (
{
layerId = m01;
shapes = (
{
closed = 1;
nodes = (
(75,500,l),
(75,-200,l),
(135,-200,l),
(135,407,l),
(132,500,l)
);
},
{
pos = (582,0);
ref = Bowl;
scale = (-1,1);
}
);
width = 582;
},
{
layerId = "747A0BA5-337F-45E8-9896-B2CAF0968805";
shapes = (
{
closed = 1;
nodes = (
(55,500,l),
(55,-200,l),
(235,-200,l),
(235,407,l),
(226,500,l)
);
},
{
pos = (606,0);
ref = Bowl;
scale = (-1,1);
}
);
width = 630;
}
);
metricLeft = l;
metricRight = o;
unicode = 112;
},
{
glyphname = q;
kernLeft = "round-left-lowercase";
lastChange = "2021-06-25 18:08:45 +0000";
layers = (
{
layerId = m01;
shapes = (
{
closed = 1;
nodes = (
(447,407,l),
(447,-200,l),
(507,-200,l),
(507,500,l),
(450,500,l)
);
},
{
ref = Bowl;
}
);
width = 582;
},
{
layerId = "747A0BA5-337F-45E8-9896-B2CAF0968805";
shapes = (
{
closed = 1;
nodes = (
(395,407,l),
(395,-200,l),
(575,-200,l),
(575,500,l),
(404,500,l)
);
},
{
pos = (24,0);
ref = Bowl;
}
);
width = 630;
}
);
metricLeft = o;
metricRight = l;
unicode = 113;
},
{
glyphname = r;
kernLeft = short_lower_case;
lastChange = "2021-06-25 07:04:29 +0000";
layers = (
{
layerId = m01;
shapes = (
{
closed = 1;
nodes = (
(136,287,l),
(136,412,o),
(224,454,o),
(312,454,c),
(312,509,l),
(204,509,o),
(100,443,o),
(100,281,c)
);
},
{
closed = 1;
nodes = (
(135,0,l),
(135,500,l),
(75,500,l),
(75,0,l)
);
}
);
width = 322;
},
{
background = {
shapes = (
{
pos = (193,0);
ref = arch;
}
);
};
layerId = "747A0BA5-337F-45E8-9896-B2CAF0968805";
shapes = (
{
closed = 1;
nodes = (
(236,265,l),
(236,313,o),
(318,340,o),
(410,340,c),
(412,516,l),
(304,516,o),
(193,431,o),
(193,269,c)
);
},
{
closed = 1;
nodes = (
(235,0,l),
(235,500,l),
(55,500,l),
(55,0,l)
);
}
);
width = 432;
}
);
metricLeft = l;
unicode = 114;
},
{
glyphname = s;
kernLeft = short_lower_case;
lastChange = "2021-06-25 05:58:02 +0000";
layers = (
{
layerId = m01;
shapes = (
{
closed = 1;
nodes = (
(88,21,o),
(162,-16,o),
(245,-16,cs),
(360,-16,o),
(428,39,o),
(428,131,cs),
(428,200,o),
(367,255,o),
(265,280,cs),
(176,301,o),
(124,335,o),
(124,371,cs),
(124,426,o),
(167,459,o),
(239,459,cs),
(290,459,o),
(342,429,o),
(380,379,c),
(428,411,l),
(384,476,o),
(317,514,o),
(248,514,cs),
(132,514,o),
(64,459,o),
(64,366,cs),
(64,301,o),
(129,250,o),
(238,229,cs),
(320,213,o),
(368,175,o),
(368,126,cs),
(368,71,o),
(318,39,o),
(234,39,cs),
(177,39,o),
(124,69,o),
(91,119,c),
(45,84,l)
);
}
);
width = 468;
},
{
layerId = "747A0BA5-337F-45E8-9896-B2CAF0968805";
shapes = (
{
closed = 1;
nodes = (
(84,31,o),
(166,-16,o),
(256,-16,cs),
(396,-16,o),
(479,44,o),
(479,146,cs),
(479,227,o),
(416,288,o),
(305,306,cs),
(251,315,o),
(215,329,o),
(215,348,cs),
(215,369,o),
(231,381,o),
(260,381,cs),
(294,381,o),
(322,366,o),
(335,340,c),
(470,399,l),
(424,473,o),
(347,516,o),
(260,516,cs),
(120,516,o),
(37,456,o),
(37,354,cs),
(37,271,o),
(102,208,o),
(219,189,cs),
(268,181,o),
(301,168,o),
(301,149,cs),
(301,130,o),
(285,119,o),
(256,119,cs),
(217,119,o),
(185,138,o),
(169,169,c),
(35,110,l)
);
}
);
width = 504;
}
);
unicode = 115;
},
{
glyphname = t;
lastChange = "2021-06-25 17:54:37 +0000";
layers = (
{
layerId = m01;
shapes = (
{
closed = 1;
nodes = (
(291,-16,o),
(326,-7,o),
(362,8,c),
(339,61,l),
(309,47,o),
(282,39,o),
(266,39,cs),
(211,39,o),
(179,75,o),
(179,136,cs),
(179,656,l),
(119,656,l),
(119,136,ls),
(119,40,o),
(174,-16,o),
(266,-16,cs)
);
},
{
closed = 1;
nodes = (
(338,445,l),
(338,500,l),
(30,500,l),
(30,445,l)
);
}
);
width = 377;
},
{
layerId = "747A0BA5-337F-45E8-9896-B2CAF0968805";
shapes = (
{
closed = 1;
nodes = (
(329,-16,o),
(387,4,o),
(420,25,c),
(361,154,l),
(349,146,o),
(326,136,o),
(313,136,cs),
(286,136,o),
(275,153,o),
(275,201,cs),
(275,656,l),
(95,656,l),
(95,155,ls),
(95,44,o),
(154,-16,o),
(278,-16,cs)
);
},
{
closed = 1;
nodes = (
(378,360,l),
(378,500,l),
(20,500,l),
(20,360,l)
);
}
);
width = 421;
}
);
metricLeft = f;
unicode = 116;
},
{
glyphname = u;
kernLeft = short_lower_case;
lastChange = "2021-06-02 19:50:47 +0000";
layers = (
{
layerId = m01;
shapes = (
{
closed = 1;
nodes = (
(419,500,l),
(419,92,l),
(423,0,l),
(479,0,l),
(479,500,l)
);
},
{
closed = 1;
nodes = (
(60,500,l),
(60,214,l),
(120,244,l),
(120,500,l)
);
},
{
angle = 180;
pos = (456,500);
ref = arch;
}
);
width = 554;
},
{
layerId = "747A0BA5-337F-45E8-9896-B2CAF0968805";
shapes = (
{
closed = 1;
nodes = (
(353,500,l),
(353,92,l),
(363,0,l),
(533,0,l),
(533,500,l)
);
},
{
closed = 1;
nodes = (
(40,500,l),
(40,214,l),
(220,244,l),
(220,500,l)
);
},
{
angle = 180;
pos = (395,500);
ref = arch;
}
);
width = 588;
}
);
metricLeft = "=|n";
metricRight = l;
unicode = 117;
},
{
glyphname = v;
kernLeft = "undercut-left-lowercase";
kernRight = "undercut-right-lowercase";
lastChange = "2021-06-02 19:54:27 +0000";
layers = (
{
layerId = m01;
shapes = (
{
closed = 1;
nodes = (
(221,0,l),
(282,0,l),
(72,500,l),
(10,500,l)
);
},
{
closed = 1;
nodes = (
(433,500,l),
(223,0,l),
(285,0,l),
(496,500,l)
);
}
);
width = 506;
},
{
layerId = "747A0BA5-337F-45E8-9896-B2CAF0968805";
shapes = (
{
closed = 1;
nodes = (
(221,0,l),
(396,0,l),
(196,500,l),
(10,500,l)
);
},
{
closed = 1;
nodes = (
(434,500,l),
(234,0,l),
(409,0,l),
(620,500,l)
);
}
);
width = 630;
}
);
unicode = 118;
},
{
glyphname = w;
kernLeft = "undercut-left-lowercase";
kernRight = "undercut-right-lowercase";
lastChange = "2021-06-25 18:04:41 +0000";
layers = (
{
layerId = m01;
shapes = (
{
closed = 1;
nodes = (
(241,0,l),
(70,500,l),
(10,500,l),
(180,0,l)
);
},
{
closed = 1;
nodes = (
(242,0,l),
(413,500,l),
(353,500,l),
(181,0,l)
);
},
{
closed = 1;
nodes = (
(584,0,l),
(413,500,l),
(353,500,l),
(523,0,l)
);
},
{
closed = 1;
nodes = (
(584,0,l),
(754,500,l),
(694,500,l),
(523,0,l)
);
}
);
width = 764;
},
{
layerId = "747A0BA5-337F-45E8-9896-B2CAF0968805";
shapes = (
{
closed = 1;
nodes = (
(345,0,l),
(194,500,l),
(10,500,l),
(180,0,l)
);
},
{
closed = 1;
nodes = (
(356,0,l),
(504,500,l),
(353,500,l),
(201,0,l)
);
},
{
closed = 1;
nodes = (
(681,0,l),
(530,500,l),
(379,500,l),
(526,0,l)
);
},
{
closed = 1;
nodes = (
(702,0,l),
(873,500,l),
(689,500,l),
(527,0,l)
);
}
);
width = 883;
}
);
unicode = 119;
},
{
glyphname = x;
kernLeft = "indented-left-lowercase";
kernRight = "indented-right-lowercase";
lastChange = "2021-06-25 05:49:03 +0000";
layers = (
{
annotations = (
{
pos = (261.094,258.046);
text = "y=258";
type = Text;
}
);
layerId = m01;
shapes = (
{
closed = 1;
nodes = (
(207,233,l),
(364,0,l),
(437,0,l),
(235,288,l),
(90,500,l),
(18,500,l)
);
},
{
closed = 1;
nodes = (
(353,500,l),
(209,288,l),
(5,0,l),
(79,0,l),
(238,233,l),
(425,500,l)
);
}
);
width = 442;
},
{
layerId = "747A0BA5-337F-45E8-9896-B2CAF0968805";
shapes = (
{
closed = 1;
nodes = (
(232,213,l),
(369,0,l),
(582,0,l),
(377,284,l),
(235,500,l),
(23,500,l)
);
},
{
closed = 1;
nodes = (
(358,500,l),
(216,284,l),
(10,0,l),
(224,0,l),
(363,213,l),
(570,500,l)
);
}
);
width = 592;
}
);
unicode = 120;
},
{
glyphname = y;
kernLeft = "undercut-left-lowercase";
kernRight = "undercut-right-lowercase";
lastChange = "2021-06-02 19:56:37 +0000";
layers = (
{
layerId = m01;
shapes = (
{
closed = 1;
nodes = (
(222,0,l),
(283,0,l),
(266,40,l),
(73,500,l),
(11,500,l)
);
},
{
closed = 1;
nodes = (
(497,500,l),
(434,500,l),
(239,39,l),
(182,-97,ls),
(166,-135,o),
(142,-157,o),
(104,-157,cs),
(90,-157,o),
(67,-150,o),
(32,-137,c),
(10,-188,l),
(49,-204,o),
(78,-212,o),
(99,-212,cs),
(181,-212,o),
(215,-164,o),
(252,-80,cs)
);
}
);
width = 507;
},
{
layerId = "747A0BA5-337F-45E8-9896-B2CAF0968805";
shapes = (
{
closed = 1;
nodes = (
(221,0,l),
(406,0,l),
(336,130,l),
(196,500,l),
(10,500,l)
);
},
{
closed = 1;
nodes = (
(618,500,l),
(432,500,l),
(292,130,l),
(217,-11,ls),
(208,-27,o),
(205,-37,o),
(184,-37,cs),
(171,-37,o),
(156,-31,o),
(144,-21,c),
(70,-170,l),
(100,-192,o),
(145,-215,o),
(192,-215,cs),
(318,-215,o),
(351,-132,o),
(399,-18,cs)
);
}
);
width = 628;
}
);
metricLeft = v;
metricRight = v;
unicode = 121;
},
{
glyphname = z;
lastChange = "2021-06-02 19:46:11 +0000";
layers = (
{
background = {
shapes = (
{
closed = 1;
nodes = (
(50,55,l),
(103,22,l),
(594,639,l),
(541,671,l)
);
}
);
};
layerId = m01;
shapes = (
{
closed = 1;
nodes = (
(399,445,l),
(436,445,l),
(436,500,l),
(50,500,l),
(50,445,l)
);
},
{
closed = 1;
nodes = (
(436,0,l),
(436,55,l),
(90,55,l),
(50,55,l),
(50,0,l)
);
},
{
closed = 1;
nodes = (
(50,55,l),
(101,23,l),
(436,445,l),
(386,477,l)
);
}
);
width = 486;
},
{
layerId = "747A0BA5-337F-45E8-9896-B2CAF0968805";
shapes = (
{
closed = 1;
nodes = (
(351,355,l),
(459,375,l),
(459,500,l),
(35,500,l),
(35,355,l)
);
},
{
closed = 1;
nodes = (
(459,0,l),
(459,144,l),
(138,144,l),
(35,125,l),
(35,0,l)
);
},
{
closed = 1;
nodes = (
(35,125,l),
(143,14,l),
(459,375,l),
(356,490,l)
);
}
);
width = 494;
}
);
unicode = 122;
},
{
glyphname = a.001;
kernLeft = "round-left-lowercase";
kernRight = "round-right-lowercase";
lastChange = "2021-06-25 18:08:45 +0000";
layers = (
{
layerId = m01;
shapes = (
{
closed = 1;
nodes = (
(451,0,l),
(451,272,ls),
(451,436,o),
(384,516,o),
(246,516,c),
(176,516,o),
(117,489,o),
(68,434,c),
(103,395,l),
(147,439,o),
(194,461,o),
(246,461,cs),
(338,461,o),
(386,399,o),
(391,272,cs),
(401,0,l)
);
},
{
closed = 1;
nodes = (
(371,-16,o),
(447,75,o),
(447,214,c),
(392,214,l),
(392,110,o),
(335,39,o),
(238,39,cs),
(154,39,o),
(105,77,o),
(105,141,c),
(105,211,o),
(159,252,o),
(250,252,cs),
(299,252,o),
(355,236,o),
(401,209,c),
(415,264,l),
(376,291,o),
(312,307,o),
(242,307,cs),
(118,307,o),
(45,245,o),
(45,141,cs),
(45,42,o),
(118,-16,o),
(242,-16,cs)
);
}
);
width = 511;
},
{
layerId = "747A0BA5-337F-45E8-9896-B2CAF0968805";
shapes = (
{
closed = 1;
nodes = (
(529,0,l),
(529,285,ls),
(529,423,o),
(424,520,o),
(276,520,cs),
(187,520,o),
(90,481,o),
(43,426,c),
(145,317,l),
(187,348,o),
(235,363,o),
(269,363,cs),
(329,363,o),
(360,316,o),
(360,249,cs),
(360,0,l)
);
},
{
closed = 1;
nodes = (
(299,-16,o),
(357,7,o),
(388,47,c),
(363,130,l),
(353,117,o),
(321,109,o),
(292,109,cs),
(244,109,o),
(223,131,o),
(223,153,c),
(223,174,o),
(246,188,o),
(286,188,cs),
(314,188,o),
(354,181,o),
(364,173,c),
(388,254,l),
(350,287,o),
(292,307,o),
(232,307,cs),
(108,307,o),
(35,245,o),
(35,141,cs),
(35,42,o),
(108,-16,o),
(232,-16,cs)
);
}
);
width = 569;
},
{
associatedMasterId = m01;
attr = {
coordinates = (
700
);
};
layerId = "2486049E-C633-4A3D-AB3D-6C05C3712295";
name = "{700}";
shapes = (
{
closed = 1;
nodes = (
(502,0,l),
(502,281,ls),
(502,427,o),
(410,519,o),
(265,519,c),
(183,519,o),
(98,484,o),
(51,429,c),
(130,343,l),
(169,376,o),
(219,396,o),
(261,396,cs),
(327,396,o),
(369,344,o),
(370,257,cs),
(373,0,l)
);
},
{
closed = 1;
nodes = (
(353,-16,o),
(422,73,o),
(422,223,c),
(371,178,l),
(371,121,o),
(331,88,o),
(263,88,cs),
(203,88,o),
(167,106,o),
(167,137,c),
(167,180,o),
(207,206,o),
(275,206,cs),
(317,206,o),
(353,196,o),
(371,179,c),
(391,254,l),
(354,285,o),
(296,303,o),
(235,303,cs),
(111,303,o),
(38,243,o),
(38,141,cs),
(38,42,o),
(111,-16,o),
(235,-16,cs)
);
}
);
width = 548;
}
);
metricLeft = o;
metricRight = n;
},
{
glyphname = a.002;
kernLeft = "round-left-lowercase";
kernRight = "round-right-lowercase";
lastChange = "2021-06-26 16:34:57 +0000";
layers = (
{
guides = (
{
pos = (250,252);
},
{
pos = (242,307);
}
);
layerId = m01;
shapes = (
{
closed = 1;
nodes = (
(507,0,l),
(507,500,l),
(447,500,l),
(447,93,l),
(450,0,l)
);
},
{
ref = Bowl;
}
);
width = 582;
},
{
guides = (
{
angle = 180;
pos = (379,294);
}
);
layerId = "747A0BA5-337F-45E8-9896-B2CAF0968805";
shapes = (
{
closed = 1;
nodes = (
(574,0,l),
(574,500,l),
(394,500,l),
(394,93,l),
(403,0,l)
);
},
{
pos = (24,0);
ref = Bowl;
}
);
width = 629;
},
{
associatedMasterId = m01;
layerId = "CB0AF63B-738D-442B-AE33-6FAC0C554570";
name = "21 Jun 21, 13:35";
shapes = (
{
closed = 1;
nodes = (
(451,0,l),
(451,272,ls),
(451,436,o),
(384,516,o),
(246,516,c),
(176,516,o),
(117,489,o),
(68,434,c),
(103,395,l),
(147,439,o),
(194,461,o),
(246,461,cs),
(338,461,o),
(386,399,o),
(391,272,cs),
(401,0,l)
);
},
{
closed = 1;
nodes = (
(371,-16,o),
(447,75,o),
(447,214,c),
(392,214,l),
(392,110,o),
(335,39,o),
(238,39,cs),
(154,39,o),
(105,77,o),
(105,141,c),
(105,211,o),
(159,252,o),
(250,252,cs),
(299,252,o),
(355,236,o),
(401,209,c),
(415,264,l),
(376,291,o),
(312,307,o),
(242,307,cs),
(118,307,o),
(45,245,o),
(45,141,cs),
(45,42,o),
(118,-16,o),
(242,-16,cs)
);
}
);
width = 511;
},
{
associatedMasterId = "747A0BA5-337F-45E8-9896-B2CAF0968805";
layerId = "45C67C7D-FBF1-4189-85B2-8F8292167A26";
name = "21 Jun 21, 13:37";
shapes = (
{
closed = 1;
nodes = (
(519,0,l),
(519,285,ls),
(519,423,o),
(414,520,o),
(266,520,cs),
(177,520,o),
(80,481,o),
(33,426,c),
(135,317,l),
(177,348,o),
(225,363,o),
(259,363,cs),
(319,363,o),
(350,316,o),
(350,249,cs),
(350,0,l)
);
},
{
closed = 1;
nodes = (
(335,-16,o),
(401,69,o),
(401,214,c),
(350,191,l),
(350,136,o),
(325,104,o),
(283,104,cs),
(233,104,o),
(204,123,o),
(204,154,c),
(204,189,o),
(236,209,o),
(291,209,cs),
(315,209,o),
(338,200,o),
(355,184,c),
(378,254,l),
(340,287,o),
(282,307,o),
(222,307,cs),
(98,307,o),
(25,245,o),
(25,141,cs),
(25,42,o),
(98,-16,o),
(222,-16,cs)
);
}
);
width = 559;
}
);
metricLeft = d;
metricRight = d;
},
{
glyphname = zero;
lastChange = "2021-06-18 08:28:53 +0000";
layers = (
{
background = {
shapes = (
{
closed = 1;
nodes = (
(584,-16,o),
(722,135,o),
(722,350,cs),
(722,564,o),
(584,716,o),
(386,716,cs),
(188,716,o),
(50,565,o),
(50,350,cs),
(50,135,o),
(191,-16,o),
(389,-16,cs)
);
},
{
closed = 1;
nodes = (
(228,42,o),
(114,170,o),
(114,350,cs),
(114,530,o),
(227,658,o),
(386,658,cs),
(545,658,o),
(658,530,o),
(658,350,cs),
(658,170,o),
(547,42,o),
(389,42,cs)
);
}
);
};
layerId = m01;
shapes = (
{
closed = 1;
nodes = (
(477,-16,o),
(588,136,o),
(588,350,cs),
(588,564,o),
(477,716,o),
(319,716,cs),
(161,716,o),
(50,564,o),
(50,350,cs),
(50,136,o),
(162,-16,o),
(321,-16,cs)
);
},
{
closed = 1;
nodes = (
(200,42,o),
(114,170,o),
(114,350,cs),
(114,530,o),
(199,658,o),
(319,658,cs),
(440,658,o),
(525,530,o),
(525,350,cs),
(525,170,o),
(440,42,o),
(321,42,cs)
);
}
);
width = 638;
},
{
layerId = "747A0BA5-337F-45E8-9896-B2CAF0968805";
shapes = (
{
closed = 1;
nodes = (
(511,-16,o),
(635,135,o),
(635,350,cs),
(635,565,o),
(510,716,o),
(332,716,cs),
(155,716,o),
(30,565,o),
(30,350,cs),
(30,135,o),
(156,-16,o),
(334,-16,cs)
);
},
{
closed = 1;
nodes = (
(266,156,o),
(219,236,o),
(219,350,cs),
(219,465,o),
(266,546,o),
(332,546,cs),
(404,546,o),
(455,465,o),
(455,350,cs),
(455,236,o),
(405,156,o),
(334,156,cs)
);
}
);
width = 665;
},
{
associatedMasterId = "747A0BA5-337F-45E8-9896-B2CAF0968805";
layerId = "BE5E8306-7BA2-4AC7-9CC2-2EDC14BD4F44";
name = "16 Jun 21, 22:16";
shapes = (
{
closed = 1;
nodes = (
(558,-16,o),
(695,136,o),
(695,350,cs),
(695,564,o),
(557,716,o),
(362,716,cs),
(168,716,o),
(30,564,o),
(30,350,cs),
(30,136,o),
(168,-16,o),
(364,-16,cs)
);
},
{
closed = 1;
nodes = (
(280,164,o),
(220,241,o),
(220,350,cs),
(220,459,o),
(279,536,o),
(362,536,cs),
(446,536,o),
(505,459,o),
(505,350,cs),
(505,241,o),
(447,164,o),
(364,164,cs)
);
}
);
width = 725;
}
);
metricLeft = O;
metricRight = O;
unicode = 48;
},
{
glyphname = one;
lastChange = "2021-06-25 18:14:39 +0000";
layers = (
{
layerId = m01;
shapes = (
{
closed = 1;
nodes = (
(272,0,l),
(274,700,l),
(210,700,l),
(210,666,l),
(208,0,l)
);
},
{
closed = 1;
nodes = (
(102,567,l),
(242,649,l),
(210,700,l),
(70,618,l)
);
}
);
width = 374;
},
{
layerId = "747A0BA5-337F-45E8-9896-B2CAF0968805";
shapes = (
{
closed = 1;
nodes = (
(343,0,l),
(343,700,l),
(187,700,l),
(168,601,l),
(168,0,l)
);
},
{
closed = 1;
nodes = (
(83,467,l),
(251,575,l),
(187,700,l),
(5,591,l)
);
}
);
width = 403;
}
);
unicode = 49;
},
{
glyphname = two;
lastChange = "2021-06-16 12:40:50 +0000";
layers = (
{
background = {
shapes = (
{
closed = 1;
nodes = (
(491,622,o),
(387,715,o),
(241,715,cs),
(163,715,o),
(80,673,o),
(40,614,c),
(89,576,l),
(118,623,o),
(181,657,o),
(241,657,cs),
(350,657,o),
(427,575,o),
(427,460,cs),
(427,2,l),
(491,2,l),
(491,490,l)
);
}
);
};
layerId = m01;
shapes = (
{
closed = 1;
nodes = (
(45,0,l),
(486,0,l),
(486,58,l),
(87,58,l),
(45,58,l)
);
},
{
closed = 1;
nodes = (
(233,146,l),
(393,296,o),
(479,407,o),
(479,511,c),
(479,632,o),
(378,717,o),
(239,717,cs),
(157,717,o),
(75,673,o),
(32,611,c),
(81,573,l),
(112,623,o),
(179,659,o),
(243,659,cs),
(344,659,o),
(415,599,o),
(415,513,c),
(415,426,o),
(336,333,o),
(183,184,c),
(45,58,l),
(89,16,l)
);
}
);
width = 536;
},
{
background = {
shapes = (
{
closed = 1;
nodes = (
(317,411,o),
(346,440,o),
(346,476,cs),
(346,511,o),
(317,540,o),
(282,540,cs),
(246,540,o),
(217,511,o),
(217,476,cs),
(217,440,o),
(246,411,o),
(282,411,cs)
);
}
);
};
layerId = "747A0BA5-337F-45E8-9896-B2CAF0968805";
shapes = (
{
closed = 1;
nodes = (
(52,0,l),
(535,0,l),
(535,150,l),
(169,150,l),
(52,160,l)
);
},
{
closed = 1;
nodes = (
(280,151,l),
(431,264,o),
(523,361,o),
(523,465,cs),
(523,612,o),
(427,713,o),
(272,713,cs),
(180,713,o),
(75,663,o),
(31,596,c),
(171,487,l),
(191,532,o),
(229,546,o),
(259,546,cs),
(327,546,o),
(348,503,o),
(348,460,c),
(348,409,o),
(259,331,o),
(164,258,c),
(52,160,l),
(162,46,l)
);
}
);
width = 588;
},
{
associatedMasterId = "747A0BA5-337F-45E8-9896-B2CAF0968805";
background = {
shapes = (
{
closed = 1;
nodes = (
(317,411,o),
(346,440,o),
(346,476,cs),
(346,511,o),
(317,540,o),
(282,540,cs),
(246,540,o),
(217,511,o),
(217,476,cs),
(217,440,o),
(246,411,o),
(282,411,cs)
);
}
);
};
layerId = "929CAB2D-CF57-4F54-934C-F0BD16D06C3B";
name = "16 Jun 21, 21:49";
shapes = (
{
closed = 1;
nodes = (
(52,0,l),
(537,0,l),
(537,147,l),
(169,147,l),
(52,160,l)
);
},
{
closed = 1;
nodes = (
(280,148,l),
(431,261,o),
(538,358,o),
(538,462,c),
(538,609,o),
(427,713,o),
(272,713,cs),
(180,713,o),
(80,664,o),
(31,596,c),
(175,484,l),
(208,512,o),
(229,540,o),
(282,540,cs),
(327,540,o),
(348,503,o),
(348,460,c),
(348,409,o),
(259,331,o),
(164,258,c),
(52,160,l),
(162,46,l)
);
}
);
width = 588;
}
);
unicode = 50;
},
{
glyphname = three;
lastChange = "2021-06-25 19:00:01 +0000";
layers = (
{
layerId = m01;
shapes = (
{
closed = 1;
nodes = (
(70,46,o),
(156,-15,o),
(264,-15,cs),
(392,-15,o),
(489,72,o),
(489,196,cs),
(489,336,o),
(364,408,o),
(189,408,c),
(189,351,l),
(331,363,o),
(425,299,o),
(425,196,cs),
(425,109,o),
(360,43,o),
(260,43,cs),
(172,43,o),
(108,94,o),
(94,161,c),
(40,129,l)
);
},
{
closed = 1;
nodes = (
(110,569,l),
(126,621,o),
(187,658,o),
(258,658,cs),
(348,658,o),
(406,599,o),
(406,533,cs),
(406,452,o),
(318,401,o),
(189,408,c),
(189,351,l),
(353,351,o),
(470,418,o),
(470,534,cs),
(470,634,o),
(382,716,o),
(262,716,cs),
(173,716,o),
(93,671,o),
(60,604,c)
);
}
);
width = 539;
},
{
background = {
shapes = (
{
closed = 1;
nodes = (
(214,140,o),
(181,169,o),
(181,209,cs),
(181,257,o),
(214,290,o),
(260,290,cs),
(307,290,o),
(341,257,o),
(341,209,cs),
(341,169,o),
(307,140,o),
(260,140,cs)
);
},
{
closed = 1;
nodes = (
(216,427,o),
(186,457,o),
(186,499,cs),
(186,539,o),
(216,567,o),
(260,567,cs),
(304,567,o),
(336,539,o),
(336,499,cs),
(336,457,o),
(304,427,o),
(260,427,cs)
);
}
);
};
layerId = "747A0BA5-337F-45E8-9896-B2CAF0968805";
shapes = (
{
closed = 1;
nodes = (
(58,58,o),
(161,-15,o),
(275,-15,cs),
(399,-15,o),
(520,55,o),
(520,186,cs),
(520,317,o),
(387,410,o),
(207,400,c),
(207,296,l),
(327,298,o),
(342,250,o),
(342,212,cs),
(342,168,o),
(310,138,o),
(264,138,cs),
(202,138,o),
(178,185,o),
(165,204,c),
(20,136,l)
);
},
{
closed = 1;
nodes = (
(189,522,l),
(203,556,o),
(235,567,o),
(260,567,cs),
(304,567,o),
(336,539,o),
(336,499,cs),
(336,449,o),
(305,423,o),
(207,423,c),
(207,325,l),
(384,315,o),
(506,392,o),
(506,524,cs),
(506,638,o),
(410,714,o),
(267,714,cs),
(169,714,o),
(83,669,o),
(48,606,c)
);
}
);
width = 570;
},
{
associatedMasterId = "747A0BA5-337F-45E8-9896-B2CAF0968805";
background = {
shapes = (
{
closed = 1;
nodes = (
(439,-16,o),
(528,65,o),
(528,180,cs),
(528,307,o),
(439,397,o),
(257,396,cs),
(75,397,o),
(-12,307,o),
(-12,180,cs),
(-12,65,o),
(75,-16,o),
(257,-16,cs)
);
},
{
closed = 1;
nodes = (
(211,130,o),
(178,159,o),
(178,199,cs),
(178,247,o),
(211,280,o),
(257,280,cs),
(304,280,o),
(338,247,o),
(338,199,cs),
(338,159,o),
(304,130,o),
(257,130,cs)
);
},
{
closed = 1;
nodes = (
(423,337,o),
(513,414,o),
(513,524,cs),
(513,636,o),
(423,716,o),
(257,716,cs),
(91,716,o),
(3,636,o),
(3,524,cs),
(3,414,o),
(91,337,o),
(257,337,cs)
);
},
{
closed = 1;
nodes = (
(213,436,o),
(183,466,o),
(183,508,cs),
(183,548,o),
(213,576,o),
(257,576,cs),
(301,576,o),
(333,548,o),
(333,508,cs),
(333,466,o),
(301,436,o),
(257,436,cs)
);
}
);
};
layerId = "5858A055-E4A5-4A27-B5E4-C1A0FFEB4DA1";
name = "16 Jun 21, 21:50";
shapes = (
{
closed = 1;
nodes = (
(59,47,o),
(157,-15,o),
(260,-15,cs),
(417,-15,o),
(528,66,o),
(528,180,cs),
(528,317,o),
(398,414,o),
(201,414,c),
(201,290,l),
(247,290,l),
(301,290,o),
(340,258,o),
(340,212,cs),
(340,167,o),
(307,135,o),
(260,135,cs),
(209,135,o),
(167,164,o),
(158,207,c),
(26,136,l)
);
},
{
closed = 1;
nodes = (
(184,525,l),
(198,551,o),
(228,564,o),
(253,564,cs),
(290,564,o),
(317,543,o),
(317,507,cs),
(317,464,o),
(285,434,o),
(239,434,cs),
(201,434,l),
(201,300,l),
(384,300,o),
(513,393,o),
(513,524,cs),
(513,635,o),
(412,714,o),
(270,714,cs),
(164,714,o),
(69,672,o),
(40,613,c)
);
}
);
width = 581;
},
{
associatedMasterId = m01;
layerId = "69F78BCB-FB56-4585-852F-31B816FA578B";
name = "16 Jun 21, 22:04";
shapes = (
{
closed = 1;
nodes = (
(70,45,o),
(160,-15,o),
(258,-15,cs),
(393,-15,o),
(489,76,o),
(489,205,cs),
(489,321,o),
(365,403,o),
(189,403,c),
(189,345,l),
(194,345,ls),
(329,344,o),
(425,286,o),
(425,205,cs),
(425,110,o),
(356,43,o),
(258,43,cs),
(176,43,o),
(108,92,o),
(94,161,c),
(40,129,l)
);
},
{
closed = 1;
nodes = (
(110,569,l),
(126,621,o),
(187,658,o),
(258,658,cs),
(345,658,o),
(406,604,o),
(406,527,cs),
(406,455,o),
(318,403,o),
(194,402,c),
(189,402,l),
(189,346,l),
(354,346,o),
(470,421,o),
(470,528,cs),
(470,638,o),
(382,716,o),
(258,716,cs),
(174,716,o),
(92,670,o),
(60,604,c)
);
}
);
width = 539;
}
);
unicode = 51;
},
{
glyphname = four;
lastChange = "2021-06-26 01:03:35 +0000";
layers = (
{
layerId = m01;
shapes = (
{
closed = 1;
nodes = (
(428,0,l),
(428,700,l),
(365,700,l),
(365,660,l),
(365,0,l)
);
},
{
closed = 1;
nodes = (
(50,182,l),
(569,182,l),
(569,241,l),
(88,241,l),
(50,241,l)
);
},
{
closed = 1;
nodes = (
(98,208,l),
(409,664,l),
(365,700,l),
(50,241,l)
);
}
);
width = 609;
},
{
layerId = "747A0BA5-337F-45E8-9896-B2CAF0968805";
shapes = (
{
closed = 1;
nodes = (
(516,0,l),
(516,700,l),
(327,700,l),
(347,605,l),
(347,0,l)
);
},
{
closed = 1;
nodes = (
(30,110,l),
(589,110,l),
(589,255,l),
(122,255,l),
(30,265,l)
);
},
{
closed = 1;
nodes = (
(156,197,l),
(424,596,l),
(326,700,l),
(30,265,l)
);
}
);
width = 619;
}
);
unicode = 52;
},
{
glyphname = five;
lastChange = "2021-06-26 00:56:58 +0000";
layers = (
{
layerId = m01;
shapes = (
{
closed = 1;
nodes = (
(119,16,o),
(212,-16,o),
(289,-16,cs),
(425,-16,o),
(522,78,o),
(522,210,cs),
(522,342,o),
(427,437,o),
(294,437,cs),
(218,437,o),
(135,395,o),
(95,335,c),
(157,335,l),
(189,698,l),
(125,698,l),
(125,642,l),
(490,642,l),
(490,700,l),
(125,700,l),
(95,335,l),
(153,321,l),
(182,355,o),
(240,381,o),
(294,381,cs),
(392,381,o),
(460,311,o),
(460,210,cs),
(460,110,o),
(390,40,o),
(289,40,cs),
(238,40,o),
(163,67,o),
(109,131,c),
(65,93,l)
);
}
);
width = 572;
},
{
background = {
shapes = (
{
closed = 1;
nodes = (
(204,269,o),
(240,304,o),
(285,304,cs),
(329,304,o),
(364,269,o),
(364,225,cs),
(364,183,o),
(329,150,o),
(285,150,cs),
(240,150,o),
(204,183,o),
(204,225,cs)
);
}
);
};
layerId = "747A0BA5-337F-45E8-9896-B2CAF0968805";
shapes = (
{
closed = 1;
nodes = (
(92,34,o),
(191,-16,o),
(285,-16,cs),
(433,-16,o),
(537,90,o),
(537,239,cs),
(537,366,o),
(450,452,o),
(347,456,cs),
(238,460,o),
(140,343,o),
(125,298,c),
(201,283,l),
(271,694,l),
(88,694,l),
(120,537,l),
(504,537,l),
(504,700,l),
(88,700,l),
(38,305,l),
(216,269,l),
(228,287,o),
(258,303,o),
(288,303,cs),
(333,303,o),
(364,273,o),
(364,225,cs),
(364,182,o),
(330,152,o),
(281,152,cs),
(253,152,o),
(226,167,o),
(216,188,c),
(45,104,l)
);
}
);
width = 567;
},
{
associatedMasterId = "747A0BA5-337F-45E8-9896-B2CAF0968805";
background = {
shapes = (
{
closed = 1;
nodes = (
(314,150,o),
(344,180,o),
(344,217,cs),
(344,253,o),
(314,283,o),
(278,283,cs),
(241,283,o),
(211,253,o),
(211,217,cs),
(211,180,o),
(241,150,o),
(278,150,cs)
);
}
);
};
layerId = "28C4825A-2F02-4BC9-AE4A-319046E5176A";
name = "16 Jun 21, 21:37";
shapes = (
{
closed = 1;
nodes = (
(100,33,o),
(204,-16,o),
(292,-16,cs),
(436,-16,o),
(537,78,o),
(537,210,cs),
(537,343,o),
(438,437,o),
(298,437,cs),
(219,437,o),
(122,382,o),
(63,304,c),
(243,297,l),
(276,694,l),
(88,694,l),
(120,537,l),
(504,537,l),
(504,700,l),
(88,700,l),
(56,305,l),
(219,251,l),
(230,270,o),
(256,283,o),
(281,283,cs),
(318,283,o),
(344,256,o),
(344,217,cs),
(344,178,o),
(318,150,o),
(281,150,cs),
(253,150,o),
(226,166,o),
(216,188,c),
(40,103,l)
);
}
);
width = 567;
}
);
unicode = 53;
},
{
glyphname = six;
lastChange = "2021-06-25 17:16:19 +0000";
layers = (
{
background = {
shapes = (
{
closed = 0;
nodes = (
(65,211,l),
(65,78,o),
(162,-16,o),
(298,-16,cs)
);
}
);
};
layerId = m01;
shapes = (
{
closed = 1;
nodes = (
(434,-16,o),
(530,78,o),
(530,211,cs),
(530,343,o),
(434,437,o),
(298,437,cs),
(199,437,o),
(122,384,o),
(90,300,c),
(104,283,l),
(94,521,o),
(176,658,o),
(321,658,cs),
(369,658,o),
(422,640,o),
(465,609,c),
(504,654,l),
(451,693,o),
(379,716,o),
(311,716,cs),
(143,716,o),
(48,573,o),
(48,334,cs),
(48,150,o),
(102,-16,o),
(298,-16,cs)
);
},
{
closed = 1;
nodes = (
(129,309,o),
(199,379,o),
(298,379,cs),
(396,379,o),
(466,309,o),
(466,211,cs),
(466,112,o),
(396,42,o),
(298,42,cs),
(199,42,o),
(129,112,o),
(129,211,cs)
);
}
);
width = 560;
},
{
background = {
shapes = (
{
closed = 0;
nodes = (
(53,217,l),
(53,91,o),
(170,-16,o),
(309,-16,cs)
);
}
);
};
layerId = "747A0BA5-337F-45E8-9896-B2CAF0968805";
shapes = (
{
closed = 1;
nodes = (
(468,-16,o),
(564,82,o),
(564,209,cs),
(564,333,o),
(473,435,o),
(345,435,cs),
(255,435,o),
(215,384,o),
(186,322,c),
(205,322,l),
(205,500,o),
(255,556,o),
(345,556,cs),
(378,556,o),
(415,551,o),
(450,523,c),
(542,652,l),
(489,691,o),
(418,714,o),
(347,714,cs),
(95,714,o),
(45,469,o),
(45,305,cs),
(45,124,o),
(131,-16,o),
(314,-16,cs)
);
},
{
closed = 1;
nodes = (
(234,259,o),
(270,294,o),
(315,294,cs),
(359,294,o),
(394,259,o),
(394,215,cs),
(394,173,o),
(359,140,o),
(315,140,cs),
(270,140,o),
(234,173,o),
(234,215,cs)
);
}
);
width = 594;
},
{
associatedMasterId = "747A0BA5-337F-45E8-9896-B2CAF0968805";
background = {
shapes = (
{
closed = 0;
nodes = (
(53,217,l),
(53,91,o),
(170,-16,o),
(309,-16,cs)
);
}
);
};
layerId = "B53FA7EA-42AA-40C9-BF76-8CE3E8D46E84";
name = "16 Jun 21, 20:24";
shapes = (
{
closed = 1;
nodes = (
(447,-16,o),
(564,91,o),
(564,217,cs),
(564,343,o),
(454,450,o),
(323,450,cs),
(223,450,o),
(129,343,o),
(119,217,c),
(56,180,l),
(76,74,o),
(180,-16,o),
(309,-16,cs)
);
},
{
closed = 1;
nodes = (
(272,151,o),
(243,180,o),
(243,217,cs),
(243,253,o),
(272,282,o),
(309,282,cs),
(345,282,o),
(374,253,o),
(374,217,cs),
(374,180,o),
(345,151,o),
(309,151,cs)
);
},
{
closed = 1;
nodes = (
(206,195,l),
(188,421,o),
(245,554,o),
(359,554,cs),
(383,554,o),
(417,542,o),
(450,523,c),
(542,652,l),
(489,691,o),
(417,714,o),
(349,714,cs),
(142,714,o),
(38,543,o),
(38,335,cs),
(38,285,o),
(38,236,o),
(56,180,c)
);
}
);
width = 594;
},
{
associatedMasterId = m01;
background = {
shapes = (
{
closed = 0;
nodes = (
(65,211,l),
(65,78,o),
(162,-16,o),
(298,-16,cs)
);
}
);
};
layerId = "EA0B3C30-4F11-4A04-AE54-5020CFB11B9D";
name = "16 Jun 21, 21:24";
shapes = (
{
closed = 1;
nodes = (
(434,-16,o),
(530,78,o),
(530,211,cs),
(530,343,o),
(434,437,o),
(298,437,cs),
(167,437,o),
(75,343,o),
(75,211,c),
(69,163,l),
(95,51,o),
(180,-16,o),
(298,-16,cs)
);
},
{
closed = 1;
nodes = (
(199,42,o),
(129,112,o),
(129,211,cs),
(129,309,o),
(199,379,o),
(298,379,cs),
(396,379,o),
(466,309,o),
(466,211,cs),
(466,112,o),
(396,42,o),
(298,42,cs)
);
},
{
closed = 1;
nodes = (
(114,171,l),
(72,477,o),
(154,658,o),
(321,658,cs),
(369,658,o),
(422,640,o),
(465,609,c),
(504,654,l),
(451,693,o),
(379,716,o),
(311,716,cs),
(143,716,o),
(48,573,o),
(48,334,cs),
(48,281,o),
(52,224,o),
(69,163,c)
);
}
);
width = 560;
}
);
unicode = 54;
},
{
glyphname = seven;
lastChange = "2021-06-16 12:45:24 +0000";
layers = (
{
layerId = m01;
shapes = (
{
closed = 1;
nodes = (
(45,642,l),
(430,642,l),
(500,642,l),
(500,700,l),
(45,700,l)
);
},
{
closed = 1;
nodes = (
(77,0,l),
(148,0,l),
(500,642,l),
(446,672,l)
);
}
);
width = 530;
},
{
layerId = "747A0BA5-337F-45E8-9896-B2CAF0968805";
shapes = (
{
closed = 1;
nodes = (
(40,540,l),
(365,540,l),
(558,560,l),
(558,700,l),
(40,700,l)
);
},
{
closed = 1;
nodes = (
(74,0,l),
(269,0,l),
(558,560,l),
(365,540,l)
);
}
);
width = 568;
}
);
unicode = 55;
},
{
glyphname = eight;
lastChange = "2021-06-16 12:42:16 +0000";
layers = (
{
layerId = m01;
shapes = (
{
closed = 1;
nodes = (
(452,-16,o),
(555,65,o),
(555,180,cs),
(555,299,o),
(452,384,o),
(307,384,cs),
(162,384,o),
(60,299,o),
(60,180,cs),
(60,65,o),
(162,-16,o),
(307,-16,cs)
);
},
{
closed = 1;
nodes = (
(200,42,o),
(124,101,o),
(124,184,cs),
(124,268,o),
(200,327,o),
(307,327,cs),
(415,327,o),
(491,268,o),
(491,184,cs),
(491,101,o),
(415,42,o),
(307,42,cs)
);
},
{
closed = 1;
nodes = (
(436,337,o),
(528,414,o),
(528,524,cs),
(528,636,o),
(436,716,o),
(307,716,cs),
(178,716,o),
(87,636,o),
(87,524,cs),
(87,414,o),
(178,337,o),
(307,337,cs)
);
},
{
closed = 1;
nodes = (
(216,394,o),
(151,446,o),
(151,519,cs),
(151,600,o),
(216,658,o),
(307,658,cs),
(399,658,o),
(464,600,o),
(464,519,cs),
(464,446,o),
(399,394,o),
(307,394,cs)
);
}
);
width = 615;
},
{
layerId = "747A0BA5-337F-45E8-9896-B2CAF0968805";
shapes = (
{
closed = 1;
nodes = (
(481,-16,o),
(570,65,o),
(570,180,cs),
(570,307,o),
(481,397,o),
(299,396,cs),
(117,397,o),
(30,307,o),
(30,180,cs),
(30,65,o),
(117,-16,o),
(299,-16,cs)
);
},
{
closed = 1;
nodes = (
(253,140,o),
(220,169,o),
(220,209,cs),
(220,257,o),
(253,290,o),
(299,290,cs),
(346,290,o),
(380,257,o),
(380,209,cs),
(380,169,o),
(346,140,o),
(299,140,cs)
);
},
{
closed = 1;
nodes = (
(465,337,o),
(555,414,o),
(555,524,cs),
(555,636,o),
(465,716,o),
(299,716,cs),
(133,716,o),
(45,636,o),
(45,524,cs),
(45,414,o),
(133,337,o),
(299,337,cs)
);
},
{
closed = 1;
nodes = (
(255,427,o),
(225,457,o),
(225,499,cs),
(225,539,o),
(255,567,o),
(299,567,cs),
(343,567,o),
(375,539,o),
(375,499,cs),
(375,457,o),
(343,427,o),
(299,427,cs)
);
}
);
width = 600;
}
);
unicode = 56;
},
{
glyphname = period;
lastChange = "2021-05-23 19:17:10 +0000";
layers = (
{
layerId = m01;
shapes = (
{
closed = 1;
nodes = (
(121,-14,o),
(142,7,o),
(142,32,cs),
(142,57,o),
(121,78,o),
(96,78,cs),
(71,78,o),
(50,57,o),
(50,32,cs),
(50,7,o),
(71,-14,o),
(96,-14,cs)
);
}
);
width = 192;
},
{
layerId = "747A0BA5-337F-45E8-9896-B2CAF0968805";
shapes = (
{
closed = 1;
nodes = (
(199,-15,o),
(246,32,o),
(246,88,cs),
(246,144,o),
(199,191,o),
(143,191,cs),
(87,191,o),
(40,144,o),
(40,88,cs),
(40,32,o),
(87,-15,o),
(143,-15,cs)
);
}
);
width = 286;
}
);
unicode = 46;
},
{
glyphname = comma;
lastChange = "2021-05-23 18:59:50 +0000";
layers = (
{
layerId = m01;
shapes = (
{
closed = 1;
nodes = (
(50,-72,l),
(78,-86,l),
(143,26,l),
(107,45,l)
);
},
{
closed = 1;
nodes = (
(126,-2,o),
(147,19,o),
(147,44,cs),
(147,69,o),
(126,90,o),
(101,90,cs),
(76,90,o),
(55,69,o),
(55,44,cs),
(55,19,o),
(76,-2,o),
(101,-2,cs)
);
}
);
width = 197;
},
{
layerId = "747A0BA5-337F-45E8-9896-B2CAF0968805";
shapes = (
{
closed = 1;
nodes = (
(56,-124,l),
(120,-159,l),
(235,40,l),
(150,87,l)
);
},
{
closed = 1;
nodes = (
(199,-16,o),
(246,31,o),
(246,87,cs),
(246,143,o),
(199,190,o),
(143,190,cs),
(87,190,o),
(40,143,o),
(40,87,cs),
(40,31,o),
(87,-16,o),
(143,-16,cs)
);
}
);
width = 286;
}
);
unicode = 44;
},
{
glyphname = colon;
lastChange = "2021-05-23 18:24:12 +0000";
layers = (
{
layerId = m01;
shapes = (
{
closed = 1;
nodes = (
(143,-2,o),
(164,19,o),
(164,44,cs),
(164,69,o),
(143,90,o),
(118,90,cs),
(93,90,o),
(72,69,o),
(72,44,cs),
(72,19,o),
(93,-2,o),
(118,-2,cs)
);
},
{
closed = 1;
nodes = (
(141,410,o),
(162,431,o),
(162,456,cs),
(162,481,o),
(141,502,o),
(116,502,cs),
(91,502,o),
(70,481,o),
(70,456,cs),
(70,431,o),
(91,410,o),
(116,410,cs)
);
}
);
width = 234;
},
{
layerId = "747A0BA5-337F-45E8-9896-B2CAF0968805";
shapes = (
{
closed = 1;
nodes = (
(229,-1,o),
(276,46,o),
(276,102,cs),
(276,158,o),
(229,205,o),
(173,205,cs),
(117,205,o),
(70,158,o),
(70,102,cs),
(70,46,o),
(117,-1,o),
(173,-1,cs)
);
},
{
closed = 1;
nodes = (
(229,294,o),
(276,341,o),
(276,397,cs),
(276,453,o),
(229,500,o),
(173,500,cs),
(117,500,o),
(70,453,o),
(70,397,cs),
(70,341,o),
(117,294,o),
(173,294,cs)
);
}
);
width = 346;
}
);
unicode = 58;
},
{
glyphname = semicolon;
lastChange = "2021-05-23 18:58:00 +0000";
layers = (
{
layerId = m01;
shapes = (
{
closed = 1;
nodes = (
(146,410,o),
(167,431,o),
(167,456,cs),
(167,481,o),
(146,502,o),
(121,502,cs),
(96,502,o),
(75,481,o),
(75,456,cs),
(75,431,o),
(96,410,o),
(121,410,cs)
);
},
{
pos = (20,0);
ref = comma;
}
);
width = 237;
},
{
layerId = "747A0BA5-337F-45E8-9896-B2CAF0968805";
shapes = (
{
closed = 1;
nodes = (
(229,294,o),
(276,341,o),
(276,397,cs),
(276,453,o),
(229,500,o),
(173,500,cs),
(117,500,o),
(70,453,o),
(70,397,cs),
(70,341,o),
(117,294,o),
(173,294,cs)
);
},
{
pos = (30,0);
ref = comma;
}
);
width = 346;
}
);
metricLeft = colon;
metricRight = colon;
unicode = 59;
},
{
glyphname = exclam;
lastChange = "2021-05-23 18:09:34 +0000";
layers = (
{
layerId = m01;
shapes = (
{
closed = 1;
nodes = (
(178,193,l),
(178,700,l),
(114,700,l),
(114,193,l)
);
},
{
closed = 1;
nodes = (
(171,-14,o),
(192,7,o),
(192,32,cs),
(192,57,o),
(171,78,o),
(146,78,cs),
(121,78,o),
(100,57,o),
(100,32,cs),
(100,7,o),
(121,-14,o),
(146,-14,cs)
);
}
);
width = 292;
},
{
layerId = "747A0BA5-337F-45E8-9896-B2CAF0968805";
shapes = (
{
closed = 1;
nodes = (
(258,251,l),
(273,700,l),
(73,700,l),
(88,251,l)
);
},
{
closed = 1;
nodes = (
(229,-16,o),
(276,31,o),
(276,87,cs),
(276,143,o),
(229,190,o),
(173,190,cs),
(117,190,o),
(70,143,o),
(70,87,cs),
(70,31,o),
(117,-16,o),
(173,-16,cs)
);
}
);
width = 346;
}
);
metricLeft = I;
metricRight = I;
unicode = 33;
},
{
glyphname = question;
lastChange = "2021-05-23 19:25:44 +0000";
layers = (
{
layerId = m01;
shapes = (
{
closed = 1;
nodes = (
(224,284,l),
(351,284,o),
(440,375,o),
(440,504,cs),
(440,628,o),
(350,716,o),
(222,716,cs),
(149,716,o),
(73,668,o),
(40,601,c),
(96,581,l),
(120,626,o),
(172,658,o),
(222,658,cs),
(312,658,o),
(376,594,o),
(376,504,cs),
(376,409,o),
(313,342,o),
(224,342,c),
(180,342,l),
(180,284,l)
);
},
{
closed = 1;
nodes = (
(239,-14,o),
(258,5,o),
(258,32,cs),
(258,59,o),
(239,78,o),
(212,78,cs),
(185,78,o),
(166,59,o),
(166,32,cs),
(166,5,o),
(185,-14,o),
(212,-14,cs)
);
},
{
closed = 1;
nodes = (
(244,193,l),
(244,342,l),
(180,342,l),
(180,193,l)
);
}
);
width = 470;
},
{
layerId = "747A0BA5-337F-45E8-9896-B2CAF0968805";
shapes = (
{
closed = 1;
nodes = (
(262,264,ls),
(388,264,o),
(476,347,o),
(476,478,cs),
(476,617,o),
(375,715,o),
(233,715,cs),
(151,715,o),
(67,662,o),
(30,586,c),
(174,512,l),
(183,531,o),
(208,545,o),
(233,545,cs),
(282,545,o),
(316,517,o),
(316,478,cs),
(316,420,o),
(283,397,o),
(236,392,cs),
(143,383,l),
(148,264,l)
);
},
{
closed = 1;
nodes = (
(290,-15,o),
(337,32,o),
(337,88,cs),
(337,144,o),
(290,191,o),
(234,191,cs),
(178,191,o),
(131,144,o),
(131,88,cs),
(131,32,o),
(178,-15,o),
(234,-15,cs)
);
},
{
closed = 1;
nodes = (
(318,213,l),
(323,342,l),
(145,342,l),
(150,213,l)
);
}
);
width = 496;
}
);
unicode = 63;
},
{
glyphname = bullet;
lastChange = "2021-05-23 18:15:48 +0000";
layers = (
{
layerId = m01;
shapes = (
{
closed = 1;
nodes = (
(302,183,o),
(348,229,o),
(348,282,cs),
(348,336,o),
(302,380,o),
(249,380,cs),
(195,380,o),
(151,336,o),
(151,282,cs),
(151,229,o),
(195,183,o),
(249,183,cs)
);
}
);
width = 500;
},
{
layerId = "747A0BA5-337F-45E8-9896-B2CAF0968805";
shapes = (
{
closed = 1;
nodes = (
(298,155,o),
(358,214,o),
(358,288,cs),
(358,361,o),
(298,420,o),
(223,420,cs),
(149,420,o),
(89,361,o),
(89,288,cs),
(89,214,o),
(149,155,o),
(223,155,cs)
);
}
);
width = 460;
}
);
unicode = 8226;
},
{
glyphname = asterisk;
lastChange = "2021-05-23 19:32:20 +0000";
layers = (
{
layerId = m01;
shapes = (
{
closed = 1;
nodes = (
(215,548,l),
(263,548,l),
(269,716,l),
(209,716,l)
);
},
{
closed = 1;
nodes = (
(232,571,l),
(246,525,l),
(408,571,l),
(390,628,l)
);
},
{
closed = 1;
nodes = (
(263,565,l),
(223,537,l),
(317,397,l),
(366,432,l)
);
},
{
closed = 1;
nodes = (
(259,533,l),
(220,562,l),
(116,430,l),
(165,394,l)
);
},
{
closed = 1;
nodes = (
(231,526,l),
(247,572,l),
(89,630,l),
(70,572,l)
);
}
);
width = 478;
},
{
layerId = "747A0BA5-337F-45E8-9896-B2CAF0968805";
shapes = (
{
closed = 1;
nodes = (
(207,518,l),
(287,518,l),
(307,716,l),
(187,716,l)
);
},
{
closed = 1;
nodes = (
(235,556,l),
(259,480,l),
(454,522,l),
(417,636,l)
);
},
{
closed = 1;
nodes = (
(279,543,l),
(215,496,l),
(315,324,l),
(412,395,l)
);
},
{
closed = 1;
nodes = (
(280,495,l),
(215,542,l),
(83,393,l),
(180,323,l)
);
},
{
closed = 1;
nodes = (
(235,480,l),
(259,556,l),
(77,636,l),
(40,522,l)
);
}
);
width = 494;
}
);
unicode = 42;
},
{
glyphname = numbersign;
lastChange = "2021-05-24 17:23:54 +0000";
layers = (
{
layerId = m01;
shapes = (
{
closed = 1;
nodes = (
(118,0,l),
(170,0,l),
(280,700,l),
(228,700,l)
);
},
{
closed = 1;
nodes = (
(348,0,l),
(400,0,l),
(510,700,l),
(458,700,l)
);
},
{
closed = 1;
nodes = (
(50,458,l),
(612,458,l),
(618,500,l),
(56,500,l)
);
},
{
closed = 1;
nodes = (
(10,200,l),
(572,200,l),
(578,242,l),
(16,242,l)
);
}
);
width = 628;
},
{
layerId = "747A0BA5-337F-45E8-9896-B2CAF0968805";
shapes = (
{
closed = 1;
nodes = (
(98,0,l),
(225,0,l),
(335,700,l),
(208,700,l)
);
},
{
closed = 1;
nodes = (
(303,0,l),
(430,0,l),
(540,700,l),
(413,700,l)
);
},
{
closed = 1;
nodes = (
(38,373,l),
(600,373,l),
(623,500,l),
(61,500,l)
);
},
{
closed = 1;
nodes = (
(10,169,l),
(572,169,l),
(590,295,l),
(28,295,l)
);
}
);
width = 633;
}
);
unicode = 35;
},
{
glyphname = slash;
lastChange = "2021-05-23 18:18:52 +0000";
layers = (
{
layerId = m01;
shapes = (
{
closed = 1;
nodes = (
(83,-84,l),
(357,747,l),
(291,747,l),
(15,-84,l)
);
}
);
width = 372;
},
{
layerId = "747A0BA5-337F-45E8-9896-B2CAF0968805";
shapes = (
{
closed = 1;
nodes = (
(183,-84,l),
(457,747,l),
(291,747,l),
(15,-84,l)
);
}
);
width = 472;
}
);
unicode = 47;
},
{
glyphname = hyphen;
lastChange = "2021-05-23 18:28:25 +0000";
layers = (
{
layerId = m01;
shapes = (
{
closed = 1;
nodes = (
(60,269,l),
(360,269,l),
(360,326,l),
(60,326,l)
);
}
);
width = 420;
},
{
layerId = "747A0BA5-337F-45E8-9896-B2CAF0968805";
shapes = (
{
closed = 1;
nodes = (
(50,223,l),
(350,223,l),
(350,373,l),
(50,373,l)
);
}
);
width = 400;
}
);
unicode = 45;
},
{
glyphname = endash;
lastChange = "2021-05-23 18:28:42 +0000";
layers = (
{
layerId = m01;
shapes = (
{
closed = 1;
nodes = (
(0,269,l),
(550,269,l),
(550,326,l),
(0,326,l)
);
}
);
width = 550;
},
{
layerId = "747A0BA5-337F-45E8-9896-B2CAF0968805";
shapes = (
{
closed = 1;
nodes = (
(0,223,l),
(550,223,l),
(550,373,l),
(0,373,l)
);
}
);
width = 550;
}
);
unicode = 8211;
},
{
glyphname = emdash;
lastChange = "2021-05-23 18:28:55 +0000";
layers = (
{
layerId = m01;
shapes = (
{
closed = 1;
nodes = (
(0,269,l),
(1100,269,l),
(1100,326,l),
(0,326,l)
);
}
);
width = 1100;
},
{
layerId = "747A0BA5-337F-45E8-9896-B2CAF0968805";
shapes = (
{
closed = 1;
nodes = (
(0,223,l),
(1100,223,l),
(1100,373,l),
(0,373,l)
);
}
);
width = 1100;
}
);
unicode = 8212;
},
{
glyphname = underscore;
lastChange = "2021-05-23 18:29:57 +0000";
layers = (
{
layerId = m01;
shapes = (
{
closed = 1;
nodes = (
(20,-57,l),
(420,-57,l),
(420,0,l),
(20,0,l)
);
}
);
width = 440;
},
{
layerId = "747A0BA5-337F-45E8-9896-B2CAF0968805";
shapes = (
{
closed = 1;
nodes = (
(15,-150,l),
(415,-150,l),
(415,0,l),
(15,0,l)
);
}
);
width = 430;
}
);
unicode = 95;
},
{
glyphname = parenleft;
lastChange = "2021-05-23 18:44:29 +0000";
layers = (
{
layerId = m01;
shapes = (
{
closed = 1;
nodes = (
(124,515,o),
(197,671,o),
(290,800,c),
(226,800,l),
(133,678,o),
(60,523,o),
(60,350,cs),
(60,177,o),
(133,22,o),
(226,-100,c),
(290,-100,l),
(197,29,o),
(124,185,o),
(124,350,cs)
);
}
);
width = 340;
},
{
layerId = "747A0BA5-337F-45E8-9896-B2CAF0968805";
shapes = (
{
closed = 1;
nodes = (
(214,515,o),
(287,671,o),
(380,800,c),
(206,800,l),
(113,678,o),
(40,523,o),
(40,350,cs),
(40,177,o),
(113,22,o),
(206,-100,c),
(380,-100,l),
(287,29,o),
(214,185,o),
(214,350,cs)
);
}
);
width = 410;
}
);
unicode = 40;
},
{
glyphname = braceleft;
lastChange = "2021-05-23 18:48:12 +0000";
layers = (
{
background = {
shapes = (
{
closed = 1;
nodes = (
(305,-52,l),
(202,-27,o),
(130,139,o),
(130,350,cs),
(130,561,o),
(201,727,o),
(302,752,c),
(292,800,l),
(160,778,o),
(66,592,o),
(66,350,cs),
(66,108,o),
(161,-78,o),
(295,-100,c)
);
}
);
};
layerId = m01;
shapes = (
{
closed = 1;
nodes = (
(160,402,o),
(140,375,o),
(60,375,c),
(60,339,l),
(191,339,o),
(224,374,o),
(224,513,cs),
(224,694,o),
(244,740,o),
(322,742,c),
(322,800,l),
(192,800,o),
(160,742,o),
(160,512,cs)
);
},
{
closed = 1;
nodes = (
(160,-42,o),
(192,-100,o),
(322,-100,c),
(322,-42,l),
(244,-40,o),
(224,6,o),
(224,187,cs),
(224,326,o),
(191,361,o),
(60,361,c),
(60,325,l),
(140,325,o),
(160,298,o),
(160,188,cs)
);
}
);
width = 382;
},
{
layerId = "747A0BA5-337F-45E8-9896-B2CAF0968805";
shapes = (
{
closed = 1;
nodes = (
(140,434,o),
(122,415,o),
(50,415,c),
(50,339,l),
(242,339,o),
(290,374,o),
(290,513,cs),
(290,631,o),
(302,661,o),
(352,662,c),
(352,800,l),
(182,800,o),
(140,742,o),
(140,512,cs)
);
},
{
closed = 1;
nodes = (
(140,-42,o),
(182,-100,o),
(352,-100,c),
(352,38,l),
(303,39,o),
(291,69,o),
(291,187,cs),
(291,326,o),
(243,361,o),
(50,361,c),
(50,285,l),
(122,285,o),
(140,266,o),
(140,188,cs)
);
}
);
width = 402;
}
);
unicode = 123;
},
{
glyphname = bracketleft;
lastChange = "2021-05-23 18:51:29 +0000";
layers = (
{
background = {
shapes = (
{
closed = 1;
nodes = (
(94,402,o),
(74,375,o),
(-6,375,c),
(-6,339,l),
(125,339,o),
(158,374,o),
(158,513,cs),
(158,694,o),
(174,740,o),
(236,742,c),
(236,800,l),
(122,800,o),
(94,742,o),
(94,512,cs)
);
},
{
closed = 1;
nodes = (
(94,-42,o),
(122,-100,o),
(236,-100,c),
(236,-42,l),
(174,-40,o),
(158,6,o),
(158,187,cs),
(158,326,o),
(125,361,o),
(-6,361,c),
(-6,325,l),
(74,325,o),
(94,298,o),
(94,188,cs)
);
}
);
};
layerId = m01;
shapes = (
{
closed = 1;
nodes = (
(236,742,l),
(164,742,l),
(164,-42,l),
(236,-42,l),
(236,-100,l),
(100,-100,l),
(100,800,l),
(236,800,l)
);
}
);
width = 316;
},
{
layerId = "747A0BA5-337F-45E8-9896-B2CAF0968805";
shapes = (
{
closed = 1;
nodes = (
(332,640,l),
(220,640,l),
(220,60,l),
(332,60,l),
(332,-100,l),
(70,-100,l),
(70,800,l),
(332,800,l)
);
}
);
width = 382;
}
);
metricLeft = I;
metricRight = "=I-20";
unicode = 91;
},
{
glyphname = quotesingle;
lastChange = "2021-05-23 19:13:58 +0000";
layers = (
{
layerId = m01;
shapes = (
{
closed = 1;
nodes = (
(65,490,l),
(117,490,l),
(122,716,l),
(60,716,l)
);
}
);
width = 182;
},
{
layerId = "747A0BA5-337F-45E8-9896-B2CAF0968805";
shapes = (
{
closed = 1;
nodes = (
(80,440,l),
(207,440,l),
(227,716,l),
(60,716,l)
);
}
);
width = 287;
}
);
unicode = 39;
},
{
glyphname = at;
lastChange = "2021-06-27 06:32:50 +0000";
layers = (
{
layerId = m01;
shapes = (
{
closed = 1;
nodes = (
(574,-213,o),
(657,-194,o),
(713,-166,c),
(685,-119,l),
(639,-140,o),
(568,-155,o),
(514,-155,cs),
(280,-155,o),
(114,14,o),
(114,252,cs),
(114,489,o),
(280,657,o),
(514,657,cs),
(725,657,o),
(874,489,o),
(874,252,c),
(938,252,l),
(938,523,o),
(762,715,o),
(514,715,cs),
(242,715,o),
(50,523,o),
(50,252,cs),
(50,-20,o),
(242,-213,o),
(514,-213,cs)
);
},
{
closed = 1;
nodes = (
(592,15,o),
(682,114,o),
(682,253,cs),
(682,392,o),
(592,490,o),
(465,490,cs),
(331,490,o),
(237,392,o),
(237,253,cs),
(237,114,o),
(331,15,o),
(465,15,cs)
);
},
{
closed = 1;
nodes = (
(373,73,o),
(301,148,o),
(301,253,cs),
(301,358,o),
(373,432,o),
(475,432,cs),
(576,432,o),
(648,358,o),
(648,253,cs),
(648,148,o),
(576,73,o),
(475,73,cs)
);
},
{
closed = 1;
nodes = (
(861,-15,o),
(938,96,o),
(938,252,c),
(874,252,l),
(874,130,o),
(825,43,o),
(755,43,cs),
(730,43,o),
(712,67,o),
(712,100,c),
(646,100,l),
(646,28,o),
(682,-16,o),
(753,-15,cs)
);
},
{
closed = 1;
nodes = (
(712,100,l),
(712,479,l),
(646,479,l),
(646,100,l)
);
}
);
width = 988;
},
{
background = {
shapes = (
{
pos = (298,28);
ref = Bowl;
scale = (0.8957,0.8957);
}
);
};
layerId = "747A0BA5-337F-45E8-9896-B2CAF0968805";
shapes = (
{
closed = 1;
nodes = (
(580,-208,o),
(660,-182,o),
(716,-146,c),
(645,-49,l),
(616,-72,o),
(565,-88,o),
(522,-88,cs),
(304,-88,o),
(150,53,o),
(150,252,cs),
(150,453,o),
(304,595,o),
(522,595,cs),
(716,595,o),
(854,453,o),
(854,252,c),
(974,252,l),
(974,523,o),
(787,715,o),
(522,715,cs),
(234,715,o),
(30,523,o),
(30,252,cs),
(30,-17,o),
(234,-208,o),
(522,-208,cs)
);
},
{
closed = 1;
nodes = (
(580,14,o),
(669,113,o),
(669,252,cs),
(669,391,o),
(580,489,o),
(455,489,cs),
(341,489,o),
(261,391,o),
(261,252,cs),
(261,113,o),
(341,14,o),
(455,14,cs)
);
},
{
closed = 1;
nodes = (
(464,158,o),
(425,196,o),
(425,253,cs),
(425,307,o),
(459,345,o),
(507,345,cs),
(557,345,o),
(594,307,o),
(594,252,cs),
(594,196,o),
(561,158,o),
(516,158,cs)
);
},
{
closed = 1;
nodes = (
(884,-15,o),
(974,96,o),
(974,252,c),
(854,252,l),
(854,158,o),
(819,91,o),
(770,91,cs),
(745,91,o),
(727,96,o),
(727,130,c),
(597,120,l),
(597,41,o),
(669,-15,o),
(756,-15,cs)
);
},
{
closed = 1;
nodes = (
(727,130,l),
(727,479,l),
(587,479,l),
(597,120,l)
);
}
);
width = 1004;
}
);
metricLeft = O;
metricRight = O;
unicode = 64;
},
{
glyphname = ampersand;
lastChange = "2021-05-24 15:44:05 +0000";
layers = (
{
layerId = m01;
shapes = (
{
closed = 1;
nodes = (
(289,352,l),
(387,409,o),
(456,457,o),
(456,541,cs),
(456,643,o),
(385,715,o),
(273,715,cs),
(185,715,o),
(116,646,o),
(116,549,cs),
(116,463,o),
(177,402,o),
(264,283,cs),
(334,185,o),
(430,68,o),
(491,0,c),
(561,0,l),
(513,55,o),
(412,185,o),
(315,314,cs),
(238,417,o),
(180,488,o),
(180,549,cs),
(180,612,o),
(226,657,o),
(283,657,cs),
(352,657,o),
(392,610,o),
(392,544,cs),
(392,476,o),
(336,446,o),
(258,400,c),
(165,347,ls),
(105,313,o),
(60,256,o),
(60,179,cs),
(60,65,o),
(144,-15,o),
(262,-15,cs),
(449,-15,o),
(581,119,o),
(581,308,c),
(517,309,l),
(517,153,o),
(411,43,o),
(262,43,cs),
(181,43,o),
(124,99,o),
(124,179,cs),
(124,239,o),
(154,277,o),
(194,299,cs)
);
}
);
width = 631;
},
{
background = {
backgroundImage = {
imagePath = "../../../Desktop/Screen Shot 2021-05-24 at 9.37.48 AM.png";
pos = (13,-37);
scale = (4.9751,4.9751);
};
};
layerId = "747A0BA5-337F-45E8-9896-B2CAF0968805";
shapes = (
{
closed = 1;
nodes = (
(306,292,l),
(452,382,o),
(508,446,o),
(508,530,cs),
(508,639,o),
(414,715,o),
(280,715,cs),
(162,715,o),
(79,641,o),
(79,537,cs),
(79,473,o),
(140,403,o),
(227,283,c),
(277,213,o),
(373,96,o),
(445,0,c),
(623,0,l),
(630,-16,o),
(500,142,o),
(321,381,cs),
(252,473,o),
(232,496,o),
(232,519,cs),
(232,552,o),
(256,575,o),
(290,575,cs),
(330,575,o),
(358,552,o),
(358,520,cs),
(358,488,o),
(302,456,o),
(228,410,c),
(118,342,ls),
(65,309,o),
(30,240,o),
(30,179,cs),
(30,65,o),
(118,-15,o),
(242,-15,cs),
(466,-15,o),
(624,114,o),
(624,296,c),
(474,297,l),
(474,187,o),
(354,127,o),
(256,127,cs),
(217,127,o),
(190,148,o),
(190,177,cs),
(190,201,o),
(209,225,o),
(237,244,cs)
);
}
);
width = 644;
}
);
metricLeft = eight;
unicode = 38;
},
{
glyphname = degree;
lastChange = "2021-05-24 17:20:27 +0000";
layers = (
{
layerId = m01;
shapes = (
{
closed = 1;
nodes = (
(254,450,o),
(315,512,o),
(315,585,cs),
(315,656,o),
(254,715,o),
(182,715,cs),
(110,715,o),
(50,656,o),
(50,585,cs),
(50,512,o),
(110,450,o),
(182,450,cs)
);
},
{
closed = 1;
nodes = (
(143,505,o),
(110,542,o),
(110,585,cs),
(110,626,o),
(143,660,o),
(182,660,cs),
(222,660,o),
(255,626,o),
(255,585,cs),
(255,542,o),
(222,505,o),
(182,505,cs)
);
}
);
width = 365;
},
{
layerId = "747A0BA5-337F-45E8-9896-B2CAF0968805";
shapes = (
{
closed = 1;
nodes = (
(281,403,o),
(357,472,o),
(357,561,cs),
(357,648,o),
(281,716,o),
(193,716,cs),
(106,716,o),
(30,648,o),
(30,561,cs),
(30,473,o),
(105,403,o),
(193,403,cs)
);
},
{
closed = 1;
nodes = (
(170,513,o),
(150,535,o),
(150,561,cs),
(150,586,o),
(170,606,o),
(193,606,cs),
(217,606,o),
(237,586,o),
(237,561,cs),
(237,535,o),
(217,513,o),
(193,513,cs)
);
}
);
width = 387;
}
);
unicode = 176;
},
{
glyphname = bar;
lastChange = "2021-05-24 17:23:16 +0000";
layers = (
{
layerId = m01;
shapes = (
{
closed = 1;
nodes = (
(155,-220,l),
(158,790,l),
(102,790,l),
(100,-220,l)
);
}
);
width = 258;
},
{
layerId = "747A0BA5-337F-45E8-9896-B2CAF0968805";
shapes = (
{
closed = 1;
nodes = (
(203,-220,l),
(210,790,l),
(75,790,l),
(70,-220,l)
);
}
);
width = 280;
}
);
metricLeft = I;
metricRight = I;
unicode = 124;
},
{
glyphname = dollar;
lastChange = "2021-06-25 18:08:45 +0000";
layers = (
{
layerId = m01;
shapes = (
{
closed = 1;
nodes = (
(99,36,o),
(202,-16,o),
(316,-16,cs),
(475,-16,o),
(569,59,o),
(569,187,cs),
(569,282,o),
(484,355,o),
(339,384,cs),
(210,410,o),
(133,461,o),
(133,522,cs),
(133,608,o),
(198,659,o),
(308,659,cs),
(384,659,o),
(462,615,o),
(518,540,c),
(569,574,l),
(509,663,o),
(416,716,o),
(320,716,cs),
(162,716,o),
(69,641,o),
(69,513,cs),
(69,424,o),
(160,355,o),
(313,327,cs),
(434,305,o),
(505,250,o),
(505,178,cs),
(505,91,o),
(429,40,o),
(301,40,cs),
(219,40,o),
(141,85,o),
(89,161,c),
(40,123,l)
);
},
{
closed = 1;
nodes = (
(336,-103,l),
(339,780,l),
(283,780,l),
(281,-103,l)
);
}
);
width = 606;
},
{
layerId = "747A0BA5-337F-45E8-9896-B2CAF0968805";
shapes = (
{
closed = 1;
nodes = (
(81,39,o),
(188,-16,o),
(307,-16,cs),
(484,-16,o),
(588,71,o),
(588,217,cs),
(588,323,o),
(492,405,o),
(330,438,cs),
(272,449,o),
(238,468,o),
(238,490,cs),
(238,520,o),
(265,538,o),
(311,538,cs),
(370,538,o),
(419,518,o),
(443,483,c),
(594,583,l),
(532,668,o),
(431,718,o),
(323,718,cs),
(148,718,o),
(45,640,o),
(45,508,cs),
(45,386,o),
(141,296,o),
(304,266,cs),
(363,254,o),
(398,236,o),
(398,217,cs),
(398,184,o),
(366,164,o),
(312,164,cs),
(243,164,o),
(190,190,o),
(170,234,c),
(20,131,l)
);
},
{
closed = 1;
nodes = (
(347,-103,l),
(371,790,l),
(287,790,l),
(265,-103,l)
);
}
);
width = 619;
}
);
metricLeft = S;
metricRight = S;
unicode = 36;
},
{
glyphname = plus;
lastChange = "2021-05-29 16:16:28 +0000";
layers = (
{
layerId = m01;
shapes = (
{
closed = 1;
nodes = (
(50,269,l),
(500,269,l),
(500,326,l),
(50,326,l)
);
},
{
closed = 1;
nodes = (
(247,523,l),
(247,73,l),
(304,73,l),
(304,523,l)
);
}
);
width = 550;
},
{
layerId = "747A0BA5-337F-45E8-9896-B2CAF0968805";
shapes = (
{
closed = 1;
nodes = (
(40,228,l),
(510,228,l),
(510,368,l),
(40,368,l)
);
},
{
closed = 1;
nodes = (
(205,533,l),
(205,63,l),
(345,63,l),
(345,533,l)
);
}
);
width = 550;
}
);
unicode = 43;
},
{
glyphname = equal;
lastChange = "2021-05-25 05:02:57 +0000";
layers = (
{
layerId = m01;
shapes = (
{
closed = 1;
nodes = (
(120,369,l),
(520,369,l),
(520,426,l),
(120,426,l)
);
},
{
closed = 1;
nodes = (
(120,169,l),
(520,169,l),
(520,226,l),
(120,226,l)
);
}
);
width = 640;
},
{
layerId = "747A0BA5-337F-45E8-9896-B2CAF0968805";
shapes = (
{
closed = 1;
nodes = (
(80,328,l),
(480,328,l),
(480,467,l),
(80,467,l)
);
},
{
closed = 1;
nodes = (
(80,128,l),
(480,128,l),
(480,267,l),
(80,267,l)
);
}
);
width = 560;
}
);
unicode = 61;
},
{
glyphname = greater;
lastChange = "2021-05-29 16:15:46 +0000";
layers = (
{
background = {
shapes = (
{
closed = 1;
nodes = (
(90,369,l),
(490,369,l),
(490,426,l),
(90,426,l)
);
},
{
closed = 1;
nodes = (
(90,169,l),
(490,169,l),
(490,226,l),
(90,226,l)
);
},
{
closed = 0;
nodes = (
(90,299,l),
(488,299,l)
);
}
);
};
layerId = m01;
shapes = (
{
closed = 1;
nodes = (
(421,266,l),
(421,332,l),
(90,489,l),
(90,426,l)
);
},
{
closed = 1;
nodes = (
(90,107,l),
(421,266,l),
(421,332,l),
(90,169,l)
);
}
);
width = 521;
},
{
background = {
shapes = (
{
closed = 1;
nodes = (
(60,328,l),
(460,328,l),
(460,467,l),
(60,467,l)
);
},
{
closed = 1;
nodes = (
(60,128,l),
(460,128,l),
(460,267,l),
(60,267,l)
);
}
);
};
layerId = "747A0BA5-337F-45E8-9896-B2CAF0968805";
shapes = (
{
closed = 1;
nodes = (
(471,234,l),
(471,369,l),
(70,536,l),
(70,379,l)
);
},
{
closed = 1;
nodes = (
(70,60,l),
(471,229,l),
(471,364,l),
(70,217,l)
);
}
);
width = 521;
}
);
unicode = 62;
},
{
glyphname = asciitilde;
lastChange = "2021-05-25 04:57:22 +0000";
layers = (
{
layerId = m01;
shapes = (
{
closed = 1;
nodes = (
(309,382,o),
(255,427,o),
(188,427,cs),
(113,427,o),
(60,369,o),
(60,288,c),
(118,288,l),
(118,338,o),
(147,373,o),
(188,373,cs),
(224,373,o),
(252,350,o),
(256,318,cs),
(265,254,o),
(319,209,o),
(386,209,cs),
(461,209,o),
(514,267,o),
(514,348,c),
(456,348,l),
(456,298,o),
(427,263,o),
(386,263,cs),
(350,263,o),
(322,286,o),
(318,318,cs)
);
}
);
width = 574;
},
{
background = {
shapes = (
{
closed = 1;
nodes = (
(424,421,o),
(346,493,o),
(250,493,cs),
(139,493,o),
(60,408,o),
(60,288,c),
(180,288,l),
(180,338,o),
(209,373,o),
(250,373,cs),
(286,373,o),
(314,350,o),
(318,318,cs),
(332,215,o),
(410,143,o),
(506,143,cs),
(617,143,o),
(696,228,o),
(696,348,c),
(576,348,l),
(576,298,o),
(547,263,o),
(506,263,cs),
(470,263,o),
(442,286,o),
(438,318,cs)
);
}
);
};
layerId = "747A0BA5-337F-45E8-9896-B2CAF0968805";
shapes = (
{
closed = 1;
nodes = (
(433,426,o),
(351,503,o),
(250,503,cs),
(133,503,o),
(50,414,o),
(50,288,c),
(190,288,l),
(190,332,o),
(215,363,o),
(250,363,cs),
(281,363,o),
(305,344,o),
(308,318,cs),
(323,210,o),
(405,133,o),
(506,133,cs),
(623,133,o),
(706,222,o),
(706,348,c),
(566,348,l),
(566,304,o),
(541,273,o),
(506,273,cs),
(475,273,o),
(451,292,o),
(448,318,cs)
);
}
);
width = 756;
}
);
metricLeft = hyphen;
metricRight = hyphen;
unicode = 126;
},
{
glyphname = asciicircum;
lastChange = "2021-05-25 05:39:40 +0000";
layers = (
{
layerId = m01;
shapes = (
{
closed = 1;
nodes = (
(301,700,l),
(235,700,l),
(80,373,l),
(143,373,l)
);
},
{
closed = 1;
nodes = (
(459,373,l),
(302,700,l),
(235,700,l),
(397,373,l)
);
}
);
width = 539;
},
{
layerId = "747A0BA5-337F-45E8-9896-B2CAF0968805";
shapes = (
{
closed = 1;
nodes = (
(381,700,l),
(225,700,l),
(70,373,l),
(223,373,l)
);
},
{
closed = 1;
nodes = (
(539,373,l),
(382,700,l),
(225,700,l),
(387,373,l)
);
}
);
width = 609;
}
);
unicode = 94;
},
{
glyphname = percent;
lastChange = "2021-05-25 05:49:07 +0000";
layers = (
{
background = {
shapes = (
{
closed = 1;
nodes = (
(108,0,l),
(172,0,l),
(172,700,l),
(108,700,l)
);
},
{
closed = 1;
nodes = (
(596,0,l),
(660,0,l),
(660,700,l),
(596,700,l)
);
},
{
closed = 1;
nodes = (
(172,332,l),
(596,332,l),
(596,390,l),
(172,390,l)
);
}
);
};
layerId = m01;
shapes = (
{
closed = 1;
nodes = (
(100,0,l),
(175,0,l),
(675,700,l),
(597,700,l)
);
},
{
closed = 1;
nodes = (
(293,390,o),
(356,458,o),
(356,553,cs),
(356,648,o),
(293,716,o),
(203,716,cs),
(113,716,o),
(50,648,o),
(50,553,cs),
(50,458,o),
(113,390,o),
(203,390,cs)
);
},
{
closed = 1;
nodes = (
(145,450,o),
(104,493,o),
(104,553,cs),
(104,613,o),
(145,656,o),
(203,656,cs),
(261,656,o),
(302,613,o),
(302,553,cs),
(302,493,o),
(261,450,o),
(203,450,cs)
);
},
{
closed = 1;
nodes = (
(662,-16,o),
(725,52,o),
(725,147,cs),
(725,242,o),
(662,310,o),
(572,310,cs),
(482,310,o),
(419,242,o),
(419,147,cs),
(419,52,o),
(482,-16,o),
(572,-16,cs)
);
},
{
closed = 1;
nodes = (
(514,44,o),
(473,87,o),
(473,147,cs),
(473,207,o),
(514,250,o),
(572,250,cs),
(630,250,o),
(671,207,o),
(671,147,cs),
(671,87,o),
(630,44,o),
(572,44,cs)
);
}
);
width = 775;
},
{
background = {
shapes = (
{
closed = 1;
nodes = (
(101,0,l),
(291,-1,l),
(291,699,l),
(101,700,l)
);
},
{
closed = 1;
nodes = (
(539,0,l),
(729,0,l),
(729,700,l),
(539,700,l)
);
},
{
closed = 1;
nodes = (
(228,276,l),
(652,276,l),
(652,446,l),
(228,446,l)
);
}
);
};
layerId = "747A0BA5-337F-45E8-9896-B2CAF0968805";
shapes = (
{
closed = 1;
nodes = (
(83,0,l),
(248,0,l),
(748,700,l),
(580,700,l)
);
},
{
closed = 1;
nodes = (
(303,356,o),
(373,431,o),
(373,536,cs),
(373,641,o),
(303,716,o),
(204,716,cs),
(105,716,o),
(35,641,o),
(35,536,cs),
(35,431,o),
(105,356,o),
(204,356,cs)
);
},
{
closed = 1;
nodes = (
(169,474,o),
(146,501,o),
(146,536,cs),
(146,571,o),
(169,598,o),
(204,598,cs),
(239,598,o),
(262,571,o),
(262,536,cs),
(262,501,o),
(239,474,o),
(204,474,cs)
);
},
{
closed = 1;
nodes = (
(733,-15,o),
(803,60,o),
(803,165,cs),
(803,270,o),
(733,345,o),
(634,345,cs),
(535,345,o),
(465,270,o),
(465,165,cs),
(465,60,o),
(535,-15,o),
(634,-15,cs)
);
},
{
closed = 1;
nodes = (
(599,103,o),
(576,130,o),
(576,165,cs),
(576,200,o),
(599,227,o),
(634,227,cs),
(669,227,o),
(692,200,o),
(692,165,cs),
(692,130,o),
(669,103,o),
(634,103,cs)
);
}
);
width = 838;
}
);
unicode = 37;
},
{
glyphname = rightArrow;
lastChange = "2021-05-25 05:32:06 +0000";
layers = (
{
layerId = m01;
shapes = (
{
closed = 1;
nodes = (
(372,44,l),
(680,297,l),
(620,326,l),
(338,88,l)
);
},
{
closed = 1;
nodes = (
(70,269,l),
(620,269,l),
(620,326,l),
(70,326,l)
);
},
{
closed = 1;
nodes = (
(620,269,l),
(680,297,l),
(372,551,l),
(338,507,l)
);
}
);
width = 740;
},
{
layerId = "747A0BA5-337F-45E8-9896-B2CAF0968805";
shapes = (
{
closed = 1;
nodes = (
(428,8,l),
(703,297,l),
(568,381,l),
(322,115,l)
);
},
{
closed = 1;
nodes = (
(60,223,l),
(610,223,l),
(610,373,l),
(60,373,l)
);
},
{
closed = 1;
nodes = (
(567,217,l),
(703,297,l),
(434,592,l),
(326,486,l)
);
}
);
width = 758;
}
);
unicode = 8594;
},
{
glyphname = grave;
lastChange = "2021-06-18 08:07:52 +0000";
layers = (
{
background = {
shapes = (
{
closed = 1;
nodes = (
(451,0,l),
(451,272,ls),
(451,436,o),
(384,516,o),
(246,516,c),
(176,516,o),
(117,489,o),
(68,434,c),
(103,395,l),
(147,439,o),
(194,461,o),
(246,461,cs),
(338,461,o),
(386,399,o),
(391,272,cs),
(401,0,l)
);
},
{
closed = 1;
nodes = (
(371,-16,o),
(447,75,o),
(447,214,c),
(392,214,l),
(392,110,o),
(335,39,o),
(238,39,cs),
(154,39,o),
(105,77,o),
(105,141,c),
(105,211,o),
(159,252,o),
(250,252,cs),
(299,252,o),
(355,236,o),
(401,209,c),
(415,264,l),
(376,291,o),
(312,307,o),
(242,307,cs),
(118,307,o),
(45,245,o),
(45,141,cs),
(45,42,o),
(118,-16,o),
(242,-16,cs)
);
}
);
};
layerId = m01;
shapes = (
{
closed = 1;
nodes = (
(318,586,l),
(353,627,l),
(210,753,l),
(170,708,l)
);
}
);
width = 523;
},
{
layerId = "747A0BA5-337F-45E8-9896-B2CAF0968805";
shapes = (
{
closed = 1;
nodes = (
(352,567,l),
(405,635,l),
(243,775,l),
(175,690,l)
);
}
);
width = 549;
}
);
unicode = 96;
},
{
glyphname = Bowl;
lastChange = "2021-06-25 18:07:28 +0000";
layers = (
{
layerId = m01;
shapes = (
{
closed = 1;
nodes = (
(398,-16,o),
(487,94,o),
(487,250,cs),
(487,406,o),
(398,516,o),
(271,516,cs),
(139,516,o),
(45,406,o),
(45,250,cs),
(45,94,o),
(139,-16,o),
(271,-16,cs)
);
},
{
closed = 1;
nodes = (
(179,38,o),
(105,126,o),
(105,250,cs),
(105,374,o),
(178,462,o),
(282,462,cs),
(379,462,o),
(447,374,o),
(447,250,c),
(447,126,o),
(379,38,o),
(283,38,cs)
);
}
);
width = 582;
},
{
layerId = "747A0BA5-337F-45E8-9896-B2CAF0968805";
shapes = (
{
closed = 1;
nodes = (
(351,-16,o),
(419,83,o),
(419,250,cs),
(419,416,o),
(351,514,o),
(237,514,cs),
(95,514,o),
(11,416,o),
(11,250,cs),
(11,83,o),
(95,-16,o),
(237,-16,cs)
);
},
{
closed = 1;
nodes = (
(236,154,o),
(200,194,o),
(199,250,cs),
(200,306,o),
(235,345,o),
(284,345,cs),
(335,345,o),
(371,306,o),
(371,250,cs),
(371,194,o),
(335,154,o),
(285,154,cs)
);
}
);
width = 585;
}
);
},
{
glyphname = arch;
lastChange = "2021-06-25 07:03:19 +0000";
layers = (
{
layerId = m01;
shapes = (
{
closed = 1;
nodes = (
(37,385,o),
(93,460,o),
(188,460,cs),
(271,460,o),
(336,425,o),
(336,256,c),
(396,286,l),
(397,441,o),
(318,516,o),
(198,516,cs),
(69,516,o),
(0,420,o),
(0,257,c),
(37,257,l)
);
}
